<svg viewBox="0 0 330 200" xmlns="http://www.w3.org/2000/svg"><g><g><g><g><g><line x1="50" y1="177" x2="45" y2="177" style="visibility: inherit;" fill="rgb(0, 0, 0)" stroke="rgb(204, 204, 204)" stroke-width="1px"></line><line x1="50" y1="159.3" x2="45" y2="159.3" style="visibility: inherit;" fill="rgb(0, 0, 0)" stroke="rgb(204, 204, 204)" stroke-width="1px"></line><line x1="50" y1="141.6" x2="45" y2="141.6" style="visibility: inherit;" fill="rgb(0, 0, 0)" stroke="rgb(204, 204, 204)" stroke-width="1px"></line><line x1="50" y1="123.89999999999999" x2="45" y2="123.89999999999999" style="visibility: inherit;" fill="rgb(0, 0, 0)" stroke="rgb(204, 204, 204)" stroke-width="1px"></line><line x1="50" y1="106.2" x2="45" y2="106.2" style="visibility: inherit;" fill="rgb(0, 0, 0)" stroke="rgb(204, 204, 204)" stroke-width="1px"></line><line x1="50" y1="88.5" x2="45" y2="88.5" style="visibility: inherit;" fill="rgb(0, 0, 0)" stroke="rgb(204, 204, 204)" stroke-width="1px"></line><line x1="50" y1="70.8" x2="45" y2="70.8" style="visibility: inherit;" fill="rgb(0, 0, 0)" stroke="rgb(204, 204, 204)" stroke-width="1px"></line><line x1="50" y1="53.10000000000001" x2="45" y2="53.10000000000001" style="visibility: inherit;" fill="rgb(0, 0, 0)" stroke="rgb(204, 204, 204)" stroke-width="1px"></line><line x1="50" y1="35.39999999999999" x2="45" y2="35.39999999999999" style="visibility: inherit;" fill="rgb(0, 0, 0)" stroke="rgb(204, 204, 204)" stroke-width="1px"></line><line x1="50" y1="17.699999999999996" x2="45" y2="17.699999999999996" style="visibility: inherit;" fill="rgb(0, 0, 0)" stroke="rgb(204, 204, 204)" stroke-width="1px"></line><line x1="50" y1="0" x2="45" y2="0" style="visibility: inherit;" fill="rgb(0, 0, 0)" stroke="rgb(204, 204, 204)" stroke-width="1px"></line></g><g transform="translate(40, 0)"><text x="0" y="177" dx="0em" dy="0.3em" style="text-anchor: end; visibility: hidden; font-family: Roboto, sans-serif; font-size: 12px; font-weight: 200;" fill="rgb(33, 33, 33)" stroke="none" stroke-width="1px">-550</text><text x="0" y="159.3" dx="0em" dy="0.3em" style="text-anchor: end; visibility: inherit; font-family: Roboto, sans-serif; font-size: 12px; font-weight: 200;" fill="rgb(33, 33, 33)" stroke="none" stroke-width="1px">-500</text><text x="0" y="141.6" dx="0em" dy="0.3em" style="text-anchor: end; visibility: hidden; font-family: Roboto, sans-serif; font-size: 12px; font-weight: 200;" fill="rgb(33, 33, 33)" stroke="none" stroke-width="1px">-450</text><text x="0" y="123.89999999999999" dx="0em" dy="0.3em" style="text-anchor: end; visibility: inherit; font-family: Roboto, sans-serif; font-size: 12px; font-weight: 200;" fill="rgb(33, 33, 33)" stroke="none" stroke-width="1px">-400</text><text x="0" y="106.2" dx="0em" dy="0.3em" style="text-anchor: end; visibility: hidden; font-family: Roboto, sans-serif; font-size: 12px; font-weight: 200;" fill="rgb(33, 33, 33)" stroke="none" stroke-width="1px">-350</text><text x="0" y="88.5" dx="0em" dy="0.3em" style="text-anchor: end; visibility: inherit; font-family: Roboto, sans-serif; font-size: 12px; font-weight: 200;" fill="rgb(33, 33, 33)" stroke="none" stroke-width="1px">-300</text><text x="0" y="70.8" dx="0em" dy="0.3em" style="text-anchor: end; visibility: hidden; font-family: Roboto, sans-serif; font-size: 12px; font-weight: 200;" fill="rgb(33, 33, 33)" stroke="none" stroke-width="1px">-250</text><text x="0" y="53.10000000000001" dx="0em" dy="0.3em" style="text-anchor: end; visibility: inherit; font-family: Roboto, sans-serif; font-size: 12px; font-weight: 200;" fill="rgb(33, 33, 33)" stroke="none" stroke-width="1px">-200</text><text x="0" y="35.39999999999999" dx="0em" dy="0.3em" style="text-anchor: end; visibility: hidden; font-family: Roboto, sans-serif; font-size: 12px; font-weight: 200;" fill="rgb(33, 33, 33)" stroke="none" stroke-width="1px">-150</text><text x="0" y="17.699999999999996" dx="0em" dy="0.3em" style="text-anchor: end; visibility: inherit; font-family: Roboto, sans-serif; font-size: 12px; font-weight: 200;" fill="rgb(33, 33, 33)" stroke="none" stroke-width="1px">-100</text><text x="0" y="0" dx="0em" dy="0.3em" style="text-anchor: end; visibility: hidden; font-family: Roboto, sans-serif; font-size: 12px; font-weight: 200;" fill="rgb(33, 33, 33)" stroke="none" stroke-width="1px">-50</text></g><line x1="50" y1="0" x2="50" y2="177" fill="rgb(0, 0, 0)" stroke="rgb(204, 204, 204)" stroke-width="1px"></line></g></g><g transform="translate(50, 0)" clip-path="url(#clip_0)"><clipPath id="clip_0"><rect width="280" height="177"></rect></clipPath><g><g><g><line x1="0" y1="0" x2="0" y2="177" fill="rgb(0, 0, 0)" stroke="rgb(66, 66, 66)" stroke-width="1px" opacity="0.25"></line><line x1="23.333333333333332" y1="0" x2="23.333333333333332" y2="177" fill="rgb(0, 0, 0)" stroke="rgb(66, 66, 66)" stroke-width="1px" opacity="0.25"></line><line x1="46.666666666666664" y1="0" x2="46.666666666666664" y2="177" fill="rgb(0, 0, 0)" stroke="rgb(66, 66, 66)" stroke-width="1px" opacity="0.25"></line><line x1="70" y1="0" x2="70" y2="177" fill="rgb(0, 0, 0)" stroke="rgb(66, 66, 66)" stroke-width="1px" opacity="0.25"></line><line x1="93.33333333333333" y1="0" x2="93.33333333333333" y2="177" fill="rgb(0, 0, 0)" stroke="rgb(66, 66, 66)" stroke-width="1px" opacity="0.25"></line><line x1="116.66666666666667" y1="0" x2="116.66666666666667" y2="177" fill="rgb(0, 0, 0)" stroke="rgb(66, 66, 66)" stroke-width="1px" opacity="0.25"></line><line x1="140" y1="0" x2="140" y2="177" fill="rgb(0, 0, 0)" stroke="rgb(66, 66, 66)" stroke-width="1px" opacity="0.25"></line><line x1="163.33333333333334" y1="0" x2="163.33333333333334" y2="177" fill="rgb(0, 0, 0)" stroke="rgb(66, 66, 66)" stroke-width="1px" opacity="0.25"></line><line x1="186.66666666666666" y1="0" x2="186.66666666666666" y2="177" fill="rgb(0, 0, 0)" stroke="rgb(66, 66, 66)" stroke-width="1px" opacity="0.25"></line><line x1="210" y1="0" x2="210" y2="177" fill="rgb(0, 0, 0)" stroke="rgb(66, 66, 66)" stroke-width="1px" opacity="0.25"></line><line x1="233.33333333333334" y1="0" x2="233.33333333333334" y2="177" fill="rgb(0, 0, 0)" stroke="rgb(66, 66, 66)" stroke-width="1px" opacity="0.25"></line><line x1="256.66666666666663" y1="0" x2="256.66666666666663" y2="177" fill="rgb(0, 0, 0)" stroke="rgb(66, 66, 66)" stroke-width="1px" opacity="0.25"></line><line x1="280" y1="0" x2="280" y2="177" fill="rgb(0, 0, 0)" stroke="rgb(66, 66, 66)" stroke-width="1px" opacity="0.25"></line></g><g><line x1="0" y1="177" x2="280" y2="177" fill="rgb(0, 0, 0)" stroke="rgb(66, 66, 66)" stroke-width="1px" opacity="0.25"></line><line x1="0" y1="159.3" x2="280" y2="159.3" fill="rgb(0, 0, 0)" stroke="rgb(66, 66, 66)" stroke-width="1px" opacity="0.25"></line><line x1="0" y1="141.6" x2="280" y2="141.6" fill="rgb(0, 0, 0)" stroke="rgb(66, 66, 66)" stroke-width="1px" opacity="0.25"></line><line x1="0" y1="123.89999999999999" x2="280" y2="123.89999999999999" fill="rgb(0, 0, 0)" stroke="rgb(66, 66, 66)" stroke-width="1px" opacity="0.25"></line><line x1="0" y1="106.2" x2="280" y2="106.2" fill="rgb(0, 0, 0)" stroke="rgb(66, 66, 66)" stroke-width="1px" opacity="0.25"></line><line x1="0" y1="88.5" x2="280" y2="88.5" fill="rgb(0, 0, 0)" stroke="rgb(66, 66, 66)" stroke-width="1px" opacity="0.25"></line><line x1="0" y1="70.8" x2="280" y2="70.8" fill="rgb(0, 0, 0)" stroke="rgb(66, 66, 66)" stroke-width="1px" opacity="0.25"></line><line x1="0" y1="53.10000000000001" x2="280" y2="53.10000000000001" fill="rgb(0, 0, 0)" stroke="rgb(66, 66, 66)" stroke-width="1px" opacity="0.25"></line><line x1="0" y1="35.39999999999999" x2="280" y2="35.39999999999999" fill="rgb(0, 0, 0)" stroke="rgb(66, 66, 66)" stroke-width="1px" opacity="0.25"></line><line x1="0" y1="17.699999999999996" x2="280" y2="17.699999999999996" fill="rgb(0, 0, 0)" stroke="rgb(66, 66, 66)" stroke-width="1px" opacity="0.25"></line><line x1="0" y1="0" x2="280" y2="0" fill="rgb(0, 0, 0)" stroke="rgb(66, 66, 66)" stroke-width="1px" opacity="0.25"></line></g></g></g><g><g><line x1="0" y1="-17.700000000000017" x2="280" y2="-17.700000000000017" fill="rgb(0, 0, 0)" stroke="rgb(153, 153, 153)" stroke-width="1.5px"></line></g></g><g><g><line x1="23.333333333333332" y1="0" x2="23.333333333333332" y2="177" fill="rgb(0, 0, 0)" stroke="rgb(153, 153, 153)" stroke-width="1.5px"></line></g></g><g><g><g><g><g><path stroke="rgb(238, 51, 119)" stroke-width="2px" d="M25.55,159.3L27.883333333333333,152.79525135040282L30.216666666666665,130.30451196787308L32.550000000000004,107.69278871087465L34.88333333333333,90.32490766028906L37.21666666666666,74.0527097969178L39.55,62.21076638684875L41.88333333333334,53.69397124243426L44.21666666666667,43.69853218134526L46.550000000000004,39.774833338066486L48.88333333333333,35.090946133698246L51.21666666666667,30.53184350615129L53.550000000000004,27.831098310900856L55.88333333333333,25.759435545331367L58.21666666666667,23.48331069534241L60.55,25.33354752509281L62.88333333333333,24.10656104329693L65.21666666666667,23.526277692426188L67.55,20.5017420963688L69.88333333333333,20.301437934383756L72.21666666666667,19.048435273572732L74.55,17.914326668941865L76.88333333333334,16.837387496450983L79.21666666666667,17.366515437209458L81.55,16.46622627064874L83.88333333333333,15.402133947242163L86.21666666666667,15.16016055281678L88.55,13.641455182997422L90.88333333333334,13.82055360791733L93.21666666666667,14.06961265193977L95.55,14.24736761474206L97.88333333333334,14.82130104665155L100.21666666666667,14.740861056278682L102.55000000000001,14.168676401309002L104.88333333333333,13.938646052895471L107.21666666666667,14.05550720081372L109.55,13.615864101702988L111.88333333333334,12.799838025862837L114.21666666666667,12.041183245956386L116.55,12.223190379946033L118.88333333333333,12.374874012024819L121.21666666666667,12.933164623548013L123.55,14.004458558373681L125.88333333333334,12.537394702641153L128.21666666666667,13.158117253778128L130.55,12.610150784361602L132.88333333333333,12.550410038485827L135.21666666666667,12.160565590953833L137.55,11.78505892243834L139.88333333333333,11.347354921330556L142.21666666666667,10.872332520667136L144.54999999999998,10.828039728464601L146.88333333333333,11.693543404951376L149.21666666666667,11.943806475099992L151.55,11.555883885059767L153.88333333333333,12.314330331036144L156.21666666666664,11.664917766492627L158.55,10.822150659895465L160.88333333333333,11.1236099638084L163.21666666666667,11.89920619434952L165.55,11.840643284480795L167.88333333333333,11.423185970688474L170.21666666666667,10.181511582413071L172.54999999999998,10.385226517318928L174.88333333333335,10.195935910391368L177.21666666666667,10.039881114105922L179.54999999999998,9.592248236334639L181.88333333333333,10.56974894180078L184.21666666666667,12.685529797209377L186.55,11.760198310454527L188.88333333333333,11.558999418401632L191.21666666666664,11.948039867105443L193.55,11.16194348813436L195.88333333333333,10.902685660751693L198.21666666666667,10.704651612515477L200.55,14.451510535380372L202.88333333333333,13.145466105163766L205.21666666666667,12.772479663098276L207.54999999999998,15.267407365730065L209.88333333333335,13.309324851566958L212.21666666666667,13.437194910940152L214.54999999999998,15.071516946564104L216.88333333333333,14.05555038400291L219.21666666666667,14.522130230401743L221.55,14.547197706112145L223.88333333333333,13.316158839731752L226.21666666666664,13.469614871710126L228.55,12.584649355154994L230.88333333333333,11.997029829157453L233.21666666666667,11.743577681430011L235.55,12.072946608858015L237.88333333333333,11.77496796531482L240.21666666666667,11.766100347059982L242.54999999999998,10.95366020823598L244.88333333333335,11.952996124941581L247.21666666666667,11.334837891029395L249.54999999999998,11.402902734617625L251.88333333333333,11.20302207289949L254.21666666666667,10.389253459804157L256.55,11.571871643753562" style="fill: none;" fill="none"></path></g><g><path stroke="rgb(255, 112, 67)" stroke-width="2px" d="M25.55,159.3L27.883333333333333,159.3L30.216666666666665,159.3L32.550000000000004,151.3935651835273L34.88333333333333,154.8227961067025L37.21666666666666,120.7571089647254L39.55,96.38199872495615L41.88333333333334,89.70448172681235L44.21666666666667,107.44127417412875L46.550000000000004,127.71261582717658L48.88333333333333,140.39357564519827L51.21666666666667,147.972643367861L53.550000000000004,150.49616018029414L55.88333333333333,152.44746436713365L58.21666666666667,139.2664419657235L60.55,100.98002502467659L62.88333333333333,85.20958474182851L65.21666666666667,85.152223290955L67.55,75.84244710642237L69.88333333333333,72.777517069413L72.21666666666667,75.25752550972834L74.55,66.1961569028173L76.88333333333334,85.11480441222537L79.21666666666667,71.41673730854077L81.55,69.42835629997109L83.88333333333333,78.473029208542L86.21666666666667,85.34414628616298L88.55,78.49280313219866L90.88333333333334,99.23281124962631L93.21666666666667,121.95697004497903L95.55,134.21794451759422L97.88333333333334,100.3264444453758L100.21666666666667,79.70834611479965L102.55000000000001,71.68460743899021L104.88333333333333,59.81868382728159L107.21666666666667,47.91304930931136L109.55,38.376629526569204L111.88333333333334,34.05661791596493L114.21666666666667,30.03445117274684L116.55,28.215870701217113L118.88333333333333,27.365441987919272L121.21666666666667,28.97918476139923L123.55,28.36151085666118L125.88333333333334,30.01578694641222L128.21666666666667,35.05811130411365L130.55,34.89750591820035L132.88333333333333,29.547783982848905L135.21666666666667,25.969789957500105L137.55,28.09931311027096L139.88333333333333,28.88142700191108L142.21666666666667,32.81989533690795L144.54999999999998,31.317298066398195L146.88333333333333,28.02269840770426L149.21666666666667,29.925779908882355L151.55,30.090587513200603L153.88333333333333,29.72219164366243L156.21666666666664,30.180834554068657L158.55,26.930181164569657L160.88333333333333,28.151628266612995L163.21666666666667,25.41529652783874L165.55,24.0991779167032L167.88333333333333,30.304545885764206L170.21666666666667,25.489287315394044L172.54999999999998,24.384291957107514L174.88333333333335,22.999134958200063L177.21666666666667,22.50788097492004L179.54999999999998,25.370809017080923L181.88333333333333,22.713125626313L184.21666666666667,22.0105949436589L186.55,22.608597182259807L188.88333333333333,22.188598525420332L191.21666666666664,22.871159115252198L193.55,19.075175901280222L195.88333333333333,19.544625108639213L198.21666666666667,18.58021528124798L200.55,26.31349003300661L202.88333333333333,48.58265488406179L205.21666666666667,51.055112498308155L207.54999999999998,46.463947931113786L209.88333333333335,45.49340789441047L212.21666666666667,39.45948387238846L214.54999999999998,36.02320989130419L216.88333333333333,32.418006366911406L219.21666666666667,26.360884252275746L221.55,23.278850119236534L223.88333333333333,23.596110071541936L226.21666666666664,21.40758561079624L228.55,21.722870934348833L230.88333333333333,21.713802992738213L233.21666666666667,21.09948179564293L235.55,22.047769509514673L237.88333333333333,20.138742137837692L240.21666666666667,23.25548441844482L242.54999999999998,23.950250435002452L244.88333333333335,20.742150261001445L247.21666666666667,24.212251020858687L249.54999999999998,24.283590828579666L251.88333333333333,26.082234929276712L254.21666666666667,26.849901821823845L256.55,26.163541093094317" style="fill: none;" fill="none"></path></g><g><path stroke="rgb(51, 187, 238)" stroke-width="2px" d="M25.55,159.3L27.883333333333333,156.62287364959715L30.216666666666665,135.43028615523357L32.550000000000004,111.0811646865396L34.88333333333333,90.1862281117383L37.21666666666666,76.58634005787292L39.55,68.05753243786111L41.88333333333334,57.838967238791554L44.21666666666667,48.07110364769217L46.550000000000004,43.285243490227124L48.88333333333333,36.595194360720555L51.21666666666667,31.97233408797775L53.550000000000004,28.921496279004L55.88333333333333,26.55504331631946L58.21666666666667,26.609691900799973L60.55,22.393265856415653L62.88333333333333,20.657265667009376L65.21666666666667,20.111503972671606L67.55,19.755761138195744L69.88333333333333,20.03794743222437L72.21666666666667,18.607137071718366L74.55,18.173476535117157L76.88333333333334,17.98408442538355L79.21666666666667,16.879245420081627L81.55,16.612826926742425L83.88333333333333,16.43881542708472L86.21666666666667,16.022888830553978L88.55,16.382213951120754L90.88333333333334,15.847328173590276L93.21666666666667,15.483916391684414L95.55,14.38794968963687L97.88333333333334,14.11268935974617L100.21666666666667,14.68385385918639L102.55000000000001,14.72919274893976L104.88333333333333,13.878475418674975L107.21666666666667,14.019404820529681L109.55,14.316362462026676L111.88333333333334,15.40077726517819L114.21666666666667,13.955746788016402L116.55,13.81088828868067L118.88333333333333,12.47789275607482L121.21666666666667,11.94713565338948L123.55,12.71900096012764L125.88333333333334,12.346681008140985L128.21666666666667,11.443608604790715L130.55,12.742565162955458L132.88333333333333,11.62449888166697L135.21666666666667,11.789099329003884L137.55,12.185219381343218L139.88333333333333,11.799851196673913L142.21666666666667,11.922630285876036L144.54999999999998,11.514858603653344L146.88333333333333,11.581715162192129L149.21666666666667,12.37230952944501L151.55,11.558105285537568L153.88333333333333,10.616463171322192L156.21666666666664,10.971877902793397L158.55,11.921446309547255L160.88333333333333,11.145987353599388L163.21666666666667,11.360392412159651L165.55,11.007595231231326L167.88333333333333,11.447276706609882L170.21666666666667,12.291646456094863L172.54999999999998,11.750428089721352L174.88333333333335,11.538976421703897L177.21666666666667,11.624505420893444L179.54999999999998,11.732463036471598L181.88333333333333,11.42907782188297L184.21666666666667,11.686006477065314L186.55,11.868484318368102L188.88333333333333,11.793890591020862L191.21666666666664,12.244734354612518L193.55,12.132921044896426L195.88333333333333,12.37735262693786L198.21666666666667,12.594811576162712L200.55,11.6208065135687L202.88333333333333,11.900164340270136L205.21666666666667,11.501379036291004L207.54999999999998,12.550667637839052L209.88333333333335,13.66168101483232L212.21666666666667,12.5158086088994L214.54999999999998,13.768204733210727L216.88333333333333,13.047003272055363L219.21666666666667,12.147001963233217L221.55,12.045960961875478L223.88333333333333,11.758776577125278L226.21666666666664,12.421906162339633L228.55,11.81442412953269L230.88333333333333,11.364974045590689L233.21666666666667,10.203224643418869L235.55,10.001775002115778L237.88333333333333,11.863305217333917L240.21666666666667,11.677502698271445L242.54999999999998,11.509382051091785L244.88333333333335,12.824509662783964L247.21666666666667,11.659505797670374L249.54999999999998,12.801303478602222L251.88333333333333,13.330622303225795L254.21666666666667,12.501253814064379L256.55,12.57003272056753" style="fill: none;" fill="none"></path></g><g><path stroke="rgb(204, 51, 17)" stroke-width="2px" d="M25.55,159.3L27.883333333333333,150.98099864959713L30.216666666666665,124.73804235964406L32.550000000000004,113.30668197407442L34.88333333333333,91.20081807164995L37.21666666666666,71.97668946666697L39.55,61.790299077751214L41.88333333333334,49.656864774879104L44.21666666666667,41.807656061414825L46.550000000000004,38.40272488795978L48.88333333333333,35.80452831998928L51.21666666666667,30.84584258033682L53.550000000000004,27.820835110635198L55.88333333333333,25.75328084476342L58.21666666666667,23.097119619733448L60.55,20.44192271160969L62.88333333333333,19.500754102496117L65.21666666666667,19.34683682966609L67.55,19.013762233703652L69.88333333333333,18.120064881295455L72.21666666666667,17.83875232550871L74.55,17.75493072415994L76.88333333333334,16.45854819657134L79.21666666666667,16.629449295608463L81.55,15.386785612307541L83.88333333333333,17.133354778841294L86.21666666666667,15.306810997854805L88.55,15.655206380531563L90.88333333333334,15.057123607951425L93.21666666666667,14.82571432967676L95.55,14.630228571875964L97.88333333333334,15.263417625647863L100.21666666666667,13.83085050698083L102.55000000000001,13.863390737249716L104.88333333333333,13.174914862643352L107.21666666666667,12.535268478859516L109.55,12.59044151978606L111.88333333333334,13.345705130740555L114.21666666666667,12.82182307727716L116.55,12.47917427803717L118.88333333333333,12.72670456702084L121.21666666666667,12.294662956069043L123.55,12.361117341531711L125.88333333333334,12.344350837045033L128.21666666666667,11.583810502147964L130.55,11.69388630129563L132.88333333333333,12.170571996859671L135.21666666666667,11.918502982045709L137.55,12.645182221366095L139.88333333333333,12.52894954888318L142.21666666666667,12.091050161456684L144.54999999999998,13.569989880813875L146.88333333333333,14.542313496361118L149.21666666666667,13.497307665686671L151.55,13.238465031540757L153.88333333333333,12.77163880285982L156.21666666666664,12.307463713844701L158.55,12.58119779617793L160.88333333333333,11.683438245577797L163.21666666666667,11.753662947346658L165.55,11.441797768407984L167.88333333333333,11.212198228915872L170.21666666666667,12.263878721285094L172.54999999999998,11.535527232771042L174.88333333333335,11.707396771791515L177.21666666666667,11.555638063074912L179.54999999999998,11.436263269973862L181.88333333333333,11.647838394113212L184.21666666666667,11.307503036467935L186.55,11.103301821880773L188.88333333333333,10.909981093128447L191.21666666666664,11.501988655877065L193.55,10.766873625655153L195.88333333333333,11.274524175393072L198.21666666666667,12.032234073106945L200.55,11.509820875993057L202.88333333333333,11.19637295772475L205.21666666666667,12.126943342505935L207.54999999999998,12.614485573374663L209.88333333333335,11.91581091189588L212.21666666666667,11.652366979266434L214.54999999999998,11.692539755430962L216.88333333333333,10.76792385325858L219.21666666666667,11.133554311955145L221.55,11.183013019301997L223.88333333333333,11.269327379452283L226.21666666666664,10.938796427671386L228.55,11.264397424473918L230.88333333333333,11.119918886813249L233.21666666666667,11.118191548152414L235.55,10.239234496762517L237.88333333333333,9.641060265928608L240.21666666666667,9.664476375621618L242.54999999999998,10.08916625750187L244.88333333333335,10.27318018663003L247.21666666666667,10.454388544106934L249.54999999999998,10.73303312646414L251.88333333333333,10.857739443749574L254.21666666666667,11.72552409837866L256.55,11.65147424296275" style="fill: none;" fill="none"></path></g></g></g></g><g opacity="0.2"><g><g><g><path stroke="rgb(238, 51, 119)" stroke-width="2px" d="M25.55,159.3L27.883333333333333,148.89240216064454L30.216666666666665,108.71340216064453L32.550000000000004,81.10140216064453L34.88333333333333,67.64940216064453L37.21666666666666,51.542402160644535L39.55,45.27659783935547L41.88333333333334,41.27640216064453L44.21666666666667,28.95720108032227L46.550000000000004,33.94859783935546L48.88333333333333,28.107597839355474L51.21666666666667,23.718L53.550000000000004,23.788798919677735L55.88333333333333,22.656L58.21666666666667,20.071798919677732L60.55,28.107597839355474L62.88333333333333,22.26660054016112L65.21666666666667,22.656L67.55,15.96539945983887L69.88333333333333,20.000999999999998L72.21666666666667,17.168999999999997L74.55,16.21320108032226L76.88333333333334,15.221999999999994L79.21666666666667,18.160201080322263L81.55,15.115798919677728L83.88333333333333,13.805999999999992L86.21666666666667,14.79720108032226L88.55,11.363399459838867L90.88333333333334,14.089201080322258L93.21666666666667,14.44320108032226L95.55,14.513999999999994L97.88333333333334,15.68220108032226L100.21666666666667,14.620201080322259L102.55000000000001,13.31039945983887L104.88333333333333,13.593600540161136L107.21666666666667,14.230798919677728L109.55,12.956399459838869L111.88333333333334,11.575798919677725L114.21666666666667,10.903201080322257L116.55,12.496201080322257L118.88333333333333,12.602399459838868L121.21666666666667,13.770600540161135L123.55,15.611399459838871L125.88333333333334,10.336798919677744L128.21666666666667,14.089201080322258L130.55,11.788201080322256L132.88333333333333,12.460798919677725L135.21666666666667,11.575798919677725L137.55,11.221798919677743L139.88333333333333,10.690798919677743L142.21666666666667,10.159798919677744L144.54999999999998,10.761600540161133L146.88333333333333,12.991798919677725L149.21666666666667,12.319201080322257L151.55,10.974000000000009L153.88333333333333,13.451999999999993L156.21666666666664,10.690798919677743L158.55,9.558000000000009L160.88333333333333,11.575798919677725L163.21666666666667,13.062600540161135L165.55,11.752798919677724L167.88333333333333,10.79700000000001L170.21666666666667,8.319000000000008L172.54999999999998,10.690798919677743L174.88333333333335,9.91200000000001L177.21666666666667,9.805798919677743L179.54999999999998,8.920798919677742L181.88333333333333,12.03599999999999L184.21666666666667,15.85920108032226L186.55,10.372201080322276L188.88333333333333,11.257201080322256L191.21666666666664,12.531600540161135L193.55,9.982798919677743L195.88333333333333,10.513798919677743L198.21666666666667,10.407600540161132L200.55,20.071798919677732L202.88333333333333,11.186399459838867L205.21666666666667,12.21299999999999L207.54999999999998,19.00979891967773L209.88333333333335,10.372201080322276L212.21666666666667,13.628999999999992L214.54999999999998,17.522999999999996L216.88333333333333,12.531600540161135L219.21666666666667,15.221999999999994L221.55,14.584798919677727L223.88333333333333,11.469600540161133L226.21666666666664,13.699798919677727L228.55,11.257201080322256L230.88333333333333,11.115600540161132L233.21666666666667,11.363399459838867L235.55,12.566999999999991L237.88333333333333,11.32799999999999L240.21666666666667,11.752798919677724L242.54999999999998,9.735000000000008L244.88333333333335,13.451999999999993L247.21666666666667,10.407600540161132L249.54999999999998,11.50499999999999L251.88333333333333,10.903201080322257L254.21666666666667,9.168600540161131L256.55,13.345798919677726" style="fill: none;" fill="none"></path></g><g><path stroke="rgb(255, 112, 67)" stroke-width="2px" d="M25.55,159.3L27.883333333333333,159.3L30.216666666666665,159.3L32.550000000000004,142.09559783935546L34.88333333333333,159.3L37.21666666666666,73.632L39.55,61.52520108032226L41.88333333333334,79.96859783935547L44.21666666666667,133.59959783935548L46.550000000000004,157.81319567871094L48.88333333333333,159.3L51.21666666666667,159.3L53.550000000000004,154.27319567871095L55.88333333333333,155.37059783935547L58.21666666666667,119.51040216064452L60.55,43.57740216064453L62.88333333333333,61.56059783935547L65.21666666666667,85.06619567871094L67.55,61.87920108032226L69.88333333333333,68.18040216064453L72.21666666666667,78.97740216064453L74.55,52.60440216064454L76.88333333333334,113.49240216064453L79.21666666666667,50.86979891967774L81.55,66.44579891967773L83.88333333333333,92.04L86.21666666666667,95.65080432128907L88.55,68.21579891967774L90.88333333333334,130.34280432128907L93.21666666666667,156.04319567871093L95.55,152.60940216064452L97.88333333333334,49.48920108032227L100.21666666666667,48.78120108032227L102.55000000000001,59.648999999999994L104.88333333333333,42.01979891967773L107.21666666666667,30.054597839355477L109.55,24.072000000000003L111.88333333333334,27.576600540161127L114.21666666666667,24.001201080322268L116.55,25.488000000000003L118.88333333333333,26.089798919677737L121.21666666666667,31.399798919677743L123.55,27.435000000000006L125.88333333333334,32.49720108032228L128.21666666666667,42.621597839355466L130.55,34.65659783935546L132.88333333333333,21.523201080322266L135.21666666666667,20.60279891967773L137.55,31.293597839355478L139.88333333333333,30.054597839355477L142.21666666666667,38.72759783935546L144.54999999999998,29.06340216064454L146.88333333333333,23.080798919677736L149.21666666666667,32.78040216064452L151.55,30.33779891967774L153.88333333333333,29.169597839355475L156.21666666666664,30.868798919677744L158.55,22.054201080322265L160.88333333333333,29.983798919677742L163.21666666666667,21.310798919677733L165.55,22.125L167.88333333333333,39.612597839355466L170.21666666666667,18.266399459838873L172.54999999999998,22.726798919677734L174.88333333333335,20.921399459838877L177.21666666666667,21.771L179.54999999999998,29.665201080322273L181.88333333333333,18.72660054016114L184.21666666666667,20.956798919677734L186.55,23.505600540161126L188.88333333333333,21.55860054016114L191.21666666666664,23.895000000000003L193.55,13.381201080322258L195.88333333333333,20.248798919677732L198.21666666666667,17.133600540161137L200.55,37.91340216064452L202.88333333333333,81.98640216064453L205.21666666666667,54.76379891967775L207.54999999999998,39.57720108032226L209.88333333333335,44.03759783935547L212.21666666666667,30.408597839355476L214.54999999999998,30.868798919677744L216.88333333333333,27.010201080322272L219.21666666666667,17.27520108032226L221.55,18.655798919677732L223.88333333333333,24.072000000000003L226.21666666666664,18.12479891967773L228.55,22.195798919677735L230.88333333333333,21.700201080322266L233.21666666666667,20.177999999999997L235.55,23.470201080322266L237.88333333333333,17.27520108032226L240.21666666666667,27.930597839355475L242.54999999999998,24.99239945983886L244.88333333333335,15.929999999999994L247.21666666666667,29.41740216064454L249.54999999999998,24.390600540161124L251.88333333333333,28.78020108032227L254.21666666666667,28.00140216064454L256.55,25.134000000000004" style="fill: none;" fill="none"></path></g><g><path stroke="rgb(51, 187, 238)" stroke-width="2px" d="M25.55,159.3L27.883333333333333,155.01659783935546L30.216666666666665,115.08540216064453L32.550000000000004,82.44659783935546L34.88333333333333,62.90579891967773L37.21666666666666,57.772798919677726L39.55,55.86120108032225L41.88333333333334,42.94020108032227L44.21666666666667,33.665402160644526L46.550000000000004,36.178798919677725L48.88333333333333,26.62079891967774L51.21666666666667,25.06320108032227L53.550000000000004,24.355201080322267L55.88333333333333,23.01L58.21666666666667,26.691600540161126L60.55,16.07160054016114L62.88333333333333,18.053999999999995L65.21666666666667,19.293L67.55,19.222201080322264L69.88333333333333,20.461201080322265L72.21666666666667,16.460999999999995L74.55,17.522999999999996L76.88333333333334,17.699999999999996L79.21666666666667,15.221999999999994L81.55,16.21320108032226L83.88333333333333,16.17779891967773L86.21666666666667,15.398999999999994L88.55,16.921201080322263L90.88333333333334,15.044999999999995L93.21666666666667,14.938798919677728L95.55,12.743999999999991L97.88333333333334,13.699798919677727L100.21666666666667,15.540600540161137L102.55000000000001,14.79720108032226L104.88333333333333,12.602399459838868L107.21666666666667,14.230798919677728L109.55,14.761798919677728L111.88333333333334,17.027399459838872L114.21666666666667,11.788201080322256L116.55,13.593600540161136L118.88333333333333,10.478399459838867L121.21666666666667,11.150999999999991L123.55,13.876798919677727L125.88333333333334,11.788201080322256L128.21666666666667,10.08900000000001L130.55,14.690999999999994L132.88333333333333,9.947399459838866L135.21666666666667,12.03599999999999L137.55,12.779399459838869L139.88333333333333,11.221798919677743L142.21666666666667,12.106798919677725L144.54999999999998,10.903201080322257L146.88333333333333,11.681999999999992L149.21666666666667,13.558201080322258L151.55,10.336798919677744L153.88333333333333,9.204000000000008L156.21666666666664,11.50499999999999L158.55,13.345798919677726L160.88333333333333,9.982798919677743L163.21666666666667,11.681999999999992L165.55,10.478399459838867L167.88333333333333,12.106798919677725L170.21666666666667,13.558201080322258L172.54999999999998,10.938600540161133L174.88333333333335,11.221798919677743L177.21666666666667,11.752798919677724L179.54999999999998,11.894399459838867L181.88333333333333,10.974000000000009L184.21666666666667,12.071399459838869L186.55,12.142201080322257L188.88333333333333,11.681999999999992L191.21666666666664,12.920999999999992L193.55,11.965201080322256L195.88333333333333,12.743999999999991L198.21666666666667,12.920999999999992L200.55,10.159798919677744L202.88333333333333,12.319201080322257L205.21666666666667,10.903201080322257L207.54999999999998,14.124600540161136L209.88333333333335,15.328201080322259L212.21666666666667,10.79700000000001L214.54999999999998,15.646798919677728L216.88333333333333,11.965201080322256L219.21666666666667,10.79700000000001L221.55,11.894399459838867L223.88333333333333,11.32799999999999L226.21666666666664,13.416600540161134L228.55,10.903201080322257L230.88333333333333,10.690798919677743L233.21666666666667,8.460600540161131L235.55,9.699600540161132L237.88333333333333,14.655600540161137L240.21666666666667,11.398798919677725L242.54999999999998,11.257201080322256L244.88333333333335,14.79720108032226L247.21666666666667,9.91200000000001L249.54999999999998,14.513999999999994L251.88333333333333,14.124600540161136L254.21666666666667,11.257201080322256L256.55,12.673201080322258" style="fill: none;" fill="none"></path></g><g><path stroke="rgb(204, 51, 17)" stroke-width="2px" d="M25.55,159.3L27.883333333333333,145.98959783935547L30.216666666666665,99.54480432128908L32.550000000000004,99.86340216064453L34.88333333333333,62.339402160644525L37.21666666666666,45.38279891967773L39.55,47.22359783935547L41.88333333333334,31.966201080322275L44.21666666666667,30.231597839355477L46.550000000000004,33.346798919677745L48.88333333333333,31.93079891967774L51.21666666666667,23.434798919677736L53.550000000000004,23.293201080322266L55.88333333333333,22.656L58.21666666666667,19.115999999999996L60.55,16.460999999999995L62.88333333333333,18.089399459838873L65.21666666666667,19.115999999999996L67.55,18.514201080322263L69.88333333333333,16.779600540161137L72.21666666666667,17.41679891967773L74.55,17.62920108032226L76.88333333333334,14.513999999999994L79.21666666666667,16.88579891967773L81.55,13.522798919677726L83.88333333333333,19.753201080322263L86.21666666666667,12.566999999999991L88.55,16.17779891967773L90.88333333333334,14.159999999999993L93.21666666666667,14.478600540161136L95.55,14.336999999999993L97.88333333333334,16.21320108032226L100.21666666666667,11.681999999999992L102.55000000000001,13.912201080322259L104.88333333333333,12.142201080322257L107.21666666666667,11.575798919677725L109.55,12.673201080322258L111.88333333333334,14.478600540161136L114.21666666666667,12.03599999999999L116.55,11.965201080322256L118.88333333333333,13.097999999999992L121.21666666666667,11.646600540161133L123.55,12.460798919677725L125.88333333333334,12.319201080322257L128.21666666666667,10.443000000000008L130.55,11.858999999999991L132.88333333333333,12.885600540161134L135.21666666666667,11.540399459838868L137.55,13.735201080322259L139.88333333333333,12.354600540161133L142.21666666666667,11.434201080322257L144.54999999999998,15.788399459838871L146.88333333333333,16.000798919677727L149.21666666666667,11.929798919677726L151.55,12.850201080322257L153.88333333333333,12.071399459838869L156.21666666666664,11.611201080322257L158.55,12.991798919677725L160.88333333333333,10.336798919677744L163.21666666666667,11.858999999999991L165.55,10.974000000000009L167.88333333333333,10.867798919677744L170.21666666666667,13.84139945983887L172.54999999999998,10.443000000000008L174.88333333333335,11.965201080322256L177.21666666666667,11.32799999999999L179.54999999999998,11.257201080322256L181.88333333333333,11.965201080322256L184.21666666666667,10.79700000000001L186.55,10.79700000000001L188.88333333333333,10.62000000000001L191.21666666666664,12.389999999999992L193.55,9.664201080322275L195.88333333333333,12.03599999999999L198.21666666666667,13.168798919677727L200.55,10.726201080322275L202.88333333333333,10.726201080322275L205.21666666666667,13.522798919677726L207.54999999999998,13.345798919677726L209.88333333333335,10.867798919677744L212.21666666666667,11.257201080322256L214.54999999999998,11.752798919677724L216.88333333333333,9.381000000000009L219.21666666666667,11.681999999999992L221.55,11.257201080322256L223.88333333333333,11.398798919677725L226.21666666666664,10.443000000000008L228.55,11.752798919677724L230.88333333333333,10.903201080322257L233.21666666666667,11.115600540161132L235.55,8.920798919677742L237.88333333333333,8.743798919677742L240.21666666666667,9.699600540161132L242.54999999999998,10.726201080322275L244.88333333333335,10.549201080322275L247.21666666666667,10.726201080322275L249.54999999999998,11.150999999999991L251.88333333333333,11.044798919677744L254.21666666666667,13.027201080322257L256.55,11.540399459838868" style="fill: none;" fill="none"></path></g></g></g></g></g></g><g transform="translate(50, 177)" clip-path="url(#clip_1)"><clipPath id="clip_1"><rect width="280" height="23"></rect></clipPath><g><g><line x1="0" y1="0" x2="0" y2="5" style="visibility: inherit;" fill="rgb(0, 0, 0)" stroke="rgb(204, 204, 204)" stroke-width="1px"></line><line x1="23.333333333333332" y1="0" x2="23.333333333333332" y2="5" style="visibility: inherit;" fill="rgb(0, 0, 0)" stroke="rgb(204, 204, 204)" stroke-width="1px"></line><line x1="46.666666666666664" y1="0" x2="46.666666666666664" y2="5" style="visibility: inherit;" fill="rgb(0, 0, 0)" stroke="rgb(204, 204, 204)" stroke-width="1px"></line><line x1="70" y1="0" x2="70" y2="5" style="visibility: inherit;" fill="rgb(0, 0, 0)" stroke="rgb(204, 204, 204)" stroke-width="1px"></line><line x1="93.33333333333333" y1="0" x2="93.33333333333333" y2="5" style="visibility: inherit;" fill="rgb(0, 0, 0)" stroke="rgb(204, 204, 204)" stroke-width="1px"></line><line x1="116.66666666666667" y1="0" x2="116.66666666666667" y2="5" style="visibility: inherit;" fill="rgb(0, 0, 0)" stroke="rgb(204, 204, 204)" stroke-width="1px"></line><line x1="140" y1="0" x2="140" y2="5" style="visibility: inherit;" fill="rgb(0, 0, 0)" stroke="rgb(204, 204, 204)" stroke-width="1px"></line><line x1="163.33333333333334" y1="0" x2="163.33333333333334" y2="5" style="visibility: inherit;" fill="rgb(0, 0, 0)" stroke="rgb(204, 204, 204)" stroke-width="1px"></line><line x1="186.66666666666666" y1="0" x2="186.66666666666666" y2="5" style="visibility: inherit;" fill="rgb(0, 0, 0)" stroke="rgb(204, 204, 204)" stroke-width="1px"></line><line x1="210" y1="0" x2="210" y2="5" style="visibility: inherit;" fill="rgb(0, 0, 0)" stroke="rgb(204, 204, 204)" stroke-width="1px"></line><line x1="233.33333333333334" y1="0" x2="233.33333333333334" y2="5" style="visibility: inherit;" fill="rgb(0, 0, 0)" stroke="rgb(204, 204, 204)" stroke-width="1px"></line><line x1="256.66666666666663" y1="0" x2="256.66666666666663" y2="5" style="visibility: inherit;" fill="rgb(0, 0, 0)" stroke="rgb(204, 204, 204)" stroke-width="1px"></line><line x1="280" y1="0" x2="280" y2="5" style="visibility: inherit;" fill="rgb(0, 0, 0)" stroke="rgb(204, 204, 204)" stroke-width="1px"></line></g><g transform="translate(0, 8)"><text x="0" y="0" dx="0em" dy="0.95em" style="text-anchor: middle; visibility: hidden; font-family: Roboto, sans-serif; font-size: 12px; font-weight: 200;" fill="rgb(33, 33, 33)" stroke="none" stroke-width="1px">-200</text><text x="23.333333333333332" y="0" dx="0em" dy="0.95em" style="text-anchor: middle; visibility: inherit; font-family: Roboto, sans-serif; font-size: 12px; font-weight: 200;" fill="rgb(33, 33, 33)" stroke="none" stroke-width="1px">0</text><text x="46.666666666666664" y="0" dx="0em" dy="0.95em" style="text-anchor: middle; visibility: hidden; font-family: Roboto, sans-serif; font-size: 12px; font-weight: 200;" fill="rgb(33, 33, 33)" stroke="none" stroke-width="1px">200</text><text x="70" y="0" dx="0em" dy="0.95em" style="text-anchor: middle; visibility: inherit; font-family: Roboto, sans-serif; font-size: 12px; font-weight: 200;" fill="rgb(33, 33, 33)" stroke="none" stroke-width="1px">400</text><text x="93.33333333333333" y="0" dx="0em" dy="0.95em" style="text-anchor: middle; visibility: hidden; font-family: Roboto, sans-serif; font-size: 12px; font-weight: 200;" fill="rgb(33, 33, 33)" stroke="none" stroke-width="1px">600</text><text x="116.66666666666667" y="0" dx="0em" dy="0.95em" style="text-anchor: middle; visibility: inherit; font-family: Roboto, sans-serif; font-size: 12px; font-weight: 200;" fill="rgb(33, 33, 33)" stroke="none" stroke-width="1px">800</text><text x="140" y="0" dx="0em" dy="0.95em" style="text-anchor: middle; visibility: hidden; font-family: Roboto, sans-serif; font-size: 12px; font-weight: 200;" fill="rgb(33, 33, 33)" stroke="none" stroke-width="1px">1k</text><text x="163.33333333333334" y="0" dx="0em" dy="0.95em" style="text-anchor: middle; visibility: inherit; font-family: Roboto, sans-serif; font-size: 12px; font-weight: 200;" fill="rgb(33, 33, 33)" stroke="none" stroke-width="1px">1.2k</text><text x="186.66666666666666" y="0" dx="0em" dy="0.95em" style="text-anchor: middle; visibility: hidden; font-family: Roboto, sans-serif; font-size: 12px; font-weight: 200;" fill="rgb(33, 33, 33)" stroke="none" stroke-width="1px">1.4k</text><text x="210" y="0" dx="0em" dy="0.95em" style="text-anchor: middle; visibility: inherit; font-family: Roboto, sans-serif; font-size: 12px; font-weight: 200;" fill="rgb(33, 33, 33)" stroke="none" stroke-width="1px">1.6k</text><text x="233.33333333333334" y="0" dx="0em" dy="0.95em" style="text-anchor: middle; visibility: hidden; font-family: Roboto, sans-serif; font-size: 12px; font-weight: 200;" fill="rgb(33, 33, 33)" stroke="none" stroke-width="1px">1.8k</text><text x="256.66666666666663" y="0" dx="0em" dy="0.95em" style="text-anchor: middle; visibility: inherit; font-family: Roboto, sans-serif; font-size: 12px; font-weight: 200;" fill="rgb(33, 33, 33)" stroke="none" stroke-width="1px">2k</text><text x="280" y="0" dx="0em" dy="0.95em" style="text-anchor: middle; visibility: hidden; font-family: Roboto, sans-serif; font-size: 12px; font-weight: 200;" fill="rgb(33, 33, 33)" stroke="none" stroke-width="1px">2.2k</text></g><line x1="0" y1="0" x2="280" y2="0" fill="rgb(0, 0, 0)" stroke="rgb(204, 204, 204)" stroke-width="1px"></line></g></g></g></g></svg>