<svg viewBox="0 0 330 200" xmlns="http://www.w3.org/2000/svg"><g><g><g><g><g><line x1="40" y1="177" x2="35" y2="177" style="visibility: inherit;" fill="rgb(0, 0, 0)" stroke="rgb(204, 204, 204)" stroke-width="1px"></line><line x1="40" y1="160.9090909090909" x2="35" y2="160.9090909090909" style="visibility: inherit;" fill="rgb(0, 0, 0)" stroke="rgb(204, 204, 204)" stroke-width="1px"></line><line x1="40" y1="144.8181818181818" x2="35" y2="144.8181818181818" style="visibility: inherit;" fill="rgb(0, 0, 0)" stroke="rgb(204, 204, 204)" stroke-width="1px"></line><line x1="40" y1="128.72727272727272" x2="35" y2="128.72727272727272" style="visibility: inherit;" fill="rgb(0, 0, 0)" stroke="rgb(204, 204, 204)" stroke-width="1px"></line><line x1="40" y1="112.63636363636364" x2="35" y2="112.63636363636364" style="visibility: inherit;" fill="rgb(0, 0, 0)" stroke="rgb(204, 204, 204)" stroke-width="1px"></line><line x1="40" y1="96.54545454545453" x2="35" y2="96.54545454545453" style="visibility: inherit;" fill="rgb(0, 0, 0)" stroke="rgb(204, 204, 204)" stroke-width="1px"></line><line x1="40" y1="80.45454545454547" x2="35" y2="80.45454545454547" style="visibility: inherit;" fill="rgb(0, 0, 0)" stroke="rgb(204, 204, 204)" stroke-width="1px"></line><line x1="40" y1="64.36363636363636" x2="35" y2="64.36363636363636" style="visibility: inherit;" fill="rgb(0, 0, 0)" stroke="rgb(204, 204, 204)" stroke-width="1px"></line><line x1="40" y1="48.272727272727266" x2="35" y2="48.272727272727266" style="visibility: inherit;" fill="rgb(0, 0, 0)" stroke="rgb(204, 204, 204)" stroke-width="1px"></line><line x1="40" y1="32.18181818181817" x2="35" y2="32.18181818181817" style="visibility: inherit;" fill="rgb(0, 0, 0)" stroke="rgb(204, 204, 204)" stroke-width="1px"></line><line x1="40" y1="16.090909090909097" x2="35" y2="16.090909090909097" style="visibility: inherit;" fill="rgb(0, 0, 0)" stroke="rgb(204, 204, 204)" stroke-width="1px"></line><line x1="40" y1="0" x2="35" y2="0" style="visibility: inherit;" fill="rgb(0, 0, 0)" stroke="rgb(204, 204, 204)" stroke-width="1px"></line></g><g transform="translate(30, 0)"><text x="0" y="177" dx="0em" dy="0.3em" style="text-anchor: end; visibility: hidden; font-family: Roboto, sans-serif; font-size: 12px; font-weight: 200;" fill="rgb(33, 33, 33)" stroke="none" stroke-width="1px">-50</text><text x="0" y="160.9090909090909" dx="0em" dy="0.3em" style="text-anchor: end; visibility: inherit; font-family: Roboto, sans-serif; font-size: 12px; font-weight: 200;" fill="rgb(33, 33, 33)" stroke="none" stroke-width="1px">0</text><text x="0" y="144.8181818181818" dx="0em" dy="0.3em" style="text-anchor: end; visibility: hidden; font-family: Roboto, sans-serif; font-size: 12px; font-weight: 200;" fill="rgb(33, 33, 33)" stroke="none" stroke-width="1px">50</text><text x="0" y="128.72727272727272" dx="0em" dy="0.3em" style="text-anchor: end; visibility: inherit; font-family: Roboto, sans-serif; font-size: 12px; font-weight: 200;" fill="rgb(33, 33, 33)" stroke="none" stroke-width="1px">100</text><text x="0" y="112.63636363636364" dx="0em" dy="0.3em" style="text-anchor: end; visibility: hidden; font-family: Roboto, sans-serif; font-size: 12px; font-weight: 200;" fill="rgb(33, 33, 33)" stroke="none" stroke-width="1px">150</text><text x="0" y="96.54545454545453" dx="0em" dy="0.3em" style="text-anchor: end; visibility: inherit; font-family: Roboto, sans-serif; font-size: 12px; font-weight: 200;" fill="rgb(33, 33, 33)" stroke="none" stroke-width="1px">200</text><text x="0" y="80.45454545454547" dx="0em" dy="0.3em" style="text-anchor: end; visibility: hidden; font-family: Roboto, sans-serif; font-size: 12px; font-weight: 200;" fill="rgb(33, 33, 33)" stroke="none" stroke-width="1px">250</text><text x="0" y="64.36363636363636" dx="0em" dy="0.3em" style="text-anchor: end; visibility: inherit; font-family: Roboto, sans-serif; font-size: 12px; font-weight: 200;" fill="rgb(33, 33, 33)" stroke="none" stroke-width="1px">300</text><text x="0" y="48.272727272727266" dx="0em" dy="0.3em" style="text-anchor: end; visibility: hidden; font-family: Roboto, sans-serif; font-size: 12px; font-weight: 200;" fill="rgb(33, 33, 33)" stroke="none" stroke-width="1px">350</text><text x="0" y="32.18181818181817" dx="0em" dy="0.3em" style="text-anchor: end; visibility: inherit; font-family: Roboto, sans-serif; font-size: 12px; font-weight: 200;" fill="rgb(33, 33, 33)" stroke="none" stroke-width="1px">400</text><text x="0" y="16.090909090909097" dx="0em" dy="0.3em" style="text-anchor: end; visibility: hidden; font-family: Roboto, sans-serif; font-size: 12px; font-weight: 200;" fill="rgb(33, 33, 33)" stroke="none" stroke-width="1px">450</text><text x="0" y="0" dx="0em" dy="0.3em" style="text-anchor: end; visibility: hidden; font-family: Roboto, sans-serif; font-size: 12px; font-weight: 200;" fill="rgb(33, 33, 33)" stroke="none" stroke-width="1px">500</text></g><line x1="40" y1="0" x2="40" y2="177" fill="rgb(0, 0, 0)" stroke="rgb(204, 204, 204)" stroke-width="1px"></line></g></g><g transform="translate(40, 0)" clip-path="url(#clip_0)"><clipPath id="clip_0"><rect width="290" height="177"></rect></clipPath><g><g><g><line x1="0" y1="0" x2="0" y2="177" fill="rgb(0, 0, 0)" stroke="rgb(66, 66, 66)" stroke-width="1px" opacity="0.25"></line><line x1="24.166666666666664" y1="0" x2="24.166666666666664" y2="177" fill="rgb(0, 0, 0)" stroke="rgb(66, 66, 66)" stroke-width="1px" opacity="0.25"></line><line x1="48.33333333333333" y1="0" x2="48.33333333333333" y2="177" fill="rgb(0, 0, 0)" stroke="rgb(66, 66, 66)" stroke-width="1px" opacity="0.25"></line><line x1="72.5" y1="0" x2="72.5" y2="177" fill="rgb(0, 0, 0)" stroke="rgb(66, 66, 66)" stroke-width="1px" opacity="0.25"></line><line x1="96.66666666666666" y1="0" x2="96.66666666666666" y2="177" fill="rgb(0, 0, 0)" stroke="rgb(66, 66, 66)" stroke-width="1px" opacity="0.25"></line><line x1="120.83333333333334" y1="0" x2="120.83333333333334" y2="177" fill="rgb(0, 0, 0)" stroke="rgb(66, 66, 66)" stroke-width="1px" opacity="0.25"></line><line x1="145" y1="0" x2="145" y2="177" fill="rgb(0, 0, 0)" stroke="rgb(66, 66, 66)" stroke-width="1px" opacity="0.25"></line><line x1="169.16666666666669" y1="0" x2="169.16666666666669" y2="177" fill="rgb(0, 0, 0)" stroke="rgb(66, 66, 66)" stroke-width="1px" opacity="0.25"></line><line x1="193.33333333333331" y1="0" x2="193.33333333333331" y2="177" fill="rgb(0, 0, 0)" stroke="rgb(66, 66, 66)" stroke-width="1px" opacity="0.25"></line><line x1="217.5" y1="0" x2="217.5" y2="177" fill="rgb(0, 0, 0)" stroke="rgb(66, 66, 66)" stroke-width="1px" opacity="0.25"></line><line x1="241.66666666666669" y1="0" x2="241.66666666666669" y2="177" fill="rgb(0, 0, 0)" stroke="rgb(66, 66, 66)" stroke-width="1px" opacity="0.25"></line><line x1="265.8333333333333" y1="0" x2="265.8333333333333" y2="177" fill="rgb(0, 0, 0)" stroke="rgb(66, 66, 66)" stroke-width="1px" opacity="0.25"></line><line x1="290" y1="0" x2="290" y2="177" fill="rgb(0, 0, 0)" stroke="rgb(66, 66, 66)" stroke-width="1px" opacity="0.25"></line></g><g><line x1="0" y1="177" x2="290" y2="177" fill="rgb(0, 0, 0)" stroke="rgb(66, 66, 66)" stroke-width="1px" opacity="0.25"></line><line x1="0" y1="160.9090909090909" x2="290" y2="160.9090909090909" fill="rgb(0, 0, 0)" stroke="rgb(66, 66, 66)" stroke-width="1px" opacity="0.25"></line><line x1="0" y1="144.8181818181818" x2="290" y2="144.8181818181818" fill="rgb(0, 0, 0)" stroke="rgb(66, 66, 66)" stroke-width="1px" opacity="0.25"></line><line x1="0" y1="128.72727272727272" x2="290" y2="128.72727272727272" fill="rgb(0, 0, 0)" stroke="rgb(66, 66, 66)" stroke-width="1px" opacity="0.25"></line><line x1="0" y1="112.63636363636364" x2="290" y2="112.63636363636364" fill="rgb(0, 0, 0)" stroke="rgb(66, 66, 66)" stroke-width="1px" opacity="0.25"></line><line x1="0" y1="96.54545454545453" x2="290" y2="96.54545454545453" fill="rgb(0, 0, 0)" stroke="rgb(66, 66, 66)" stroke-width="1px" opacity="0.25"></line><line x1="0" y1="80.45454545454547" x2="290" y2="80.45454545454547" fill="rgb(0, 0, 0)" stroke="rgb(66, 66, 66)" stroke-width="1px" opacity="0.25"></line><line x1="0" y1="64.36363636363636" x2="290" y2="64.36363636363636" fill="rgb(0, 0, 0)" stroke="rgb(66, 66, 66)" stroke-width="1px" opacity="0.25"></line><line x1="0" y1="48.272727272727266" x2="290" y2="48.272727272727266" fill="rgb(0, 0, 0)" stroke="rgb(66, 66, 66)" stroke-width="1px" opacity="0.25"></line><line x1="0" y1="32.18181818181817" x2="290" y2="32.18181818181817" fill="rgb(0, 0, 0)" stroke="rgb(66, 66, 66)" stroke-width="1px" opacity="0.25"></line><line x1="0" y1="16.090909090909097" x2="290" y2="16.090909090909097" fill="rgb(0, 0, 0)" stroke="rgb(66, 66, 66)" stroke-width="1px" opacity="0.25"></line><line x1="0" y1="0" x2="290" y2="0" fill="rgb(0, 0, 0)" stroke="rgb(66, 66, 66)" stroke-width="1px" opacity="0.25"></line></g></g></g><g><g><line x1="0" y1="160.9090909090909" x2="290" y2="160.9090909090909" fill="rgb(0, 0, 0)" stroke="rgb(153, 153, 153)" stroke-width="1.5px"></line></g></g><g><g><line x1="24.166666666666664" y1="0" x2="24.166666666666664" y2="177" fill="rgb(0, 0, 0)" stroke="rgb(153, 153, 153)" stroke-width="1.5px"></line></g></g><g><g><g><g><g><path stroke="rgb(187, 187, 187)" stroke-width="2px" d="M26.4625,154.0221819409457L28.879166666666666,153.82104557730935L31.29583333333333,154.02218200358035L33.7125,154.5693910301433L36.12916666666667,155.2672452405884L38.54583333333333,154.96089031058636L40.9625,152.42915284597564L43.37916666666667,144.8812615726413L45.795833333333334,140.7205718389998L48.212500000000006,133.0836934859128L50.62916666666667,128.7766991409266L53.045833333333334,126.1509223146048L55.4625,126.02274962269549L57.87916666666667,109.18539999418151L60.295833333333334,106.98613281398653L62.7125,110.23834223411453L65.12916666666666,98.33568231253875L67.54583333333333,94.89022349608325L69.96249999999999,96.22177848076905L72.37916666666666,83.28495773416147L74.79583333333333,78.83153306277207L77.21249999999999,84.7843796153812L79.62916666666668,86.06467345804359L82.04583333333333,89.43314809435971L84.4625,92.61277140933815L86.87916666666666,87.98118261053041L89.29583333333333,69.935165395044L91.71249999999999,64.4111314226965L94.12916666666666,71.8969365501107L96.54583333333333,70.69867154175927L98.9625,62.12734802835228L101.37916666666668,60.6275351846847L103.79583333333333,58.646339198022964L106.2125,67.89740456955664L108.62916666666666,66.40666011223627L111.04583333333333,56.43694063336639L113.46249999999999,57.908417363202986L115.87916666666668,57.6456314494389L118.29583333333333,53.69050534789002L120.7125,55.822884244077365L123.12916666666666,57.78456848303399L125.54583333333333,61.34303357200158L127.96249999999999,72.24443872101124L130.37916666666666,62.115098023110434L132.79583333333335,44.00149360424196L135.2125,43.483006824799766L137.62916666666666,32.55191475675773L140.04583333333332,27.525113275994325L142.4625,28.80852251106845L144.87916666666666,24.751295324790075L147.29583333333335,30.14357562352237L149.7125,29.941927977983593L152.12916666666666,24.89068248813074L154.54583333333335,21.7054648240186L156.9625,20.02604174508482L159.37916666666666,28.080787112039705L161.79583333333332,25.782144208807118L164.2125,33.09204937595996L166.62916666666666,33.963739502174064L169.04583333333332,38.77337018834303L171.4625,44.23369405458979L173.87916666666666,45.70770655615592L176.29583333333332,39.47349744665513L178.71249999999998,58.440462104356854L181.1291666666667,86.05314979346471L183.54583333333335,99.44119818129901L185.9625,110.5506102107148L188.37916666666666,116.76571197381881L190.79583333333335,95.99797263883673L193.2125,71.33398515467985L195.62916666666666,50.57551757984625L198.04583333333332,41.20989158040064L200.4625,45.34804561052731L202.87916666666666,39.16759021699111L205.29583333333332,35.09888218861085L207.7125,32.42594592360686L210.12916666666666,21.592441067125744L212.54583333333332,19.533429062328022L214.96249999999998,27.141583138746242L217.3791666666667,46.175424181898336L219.79583333333335,51.841618145502636L222.2125,50.07937010161266L224.62916666666666,40.55176830120194L227.04583333333335,40.53782383139588L229.4625,41.88109351314861L231.87916666666666,29.724221315630636L234.29583333333332,20.22886084779458L236.7125,24.765462748911112L239.12916666666666,33.215787525944684L241.54583333333332,63.51652784671029L243.9625,69.01733567553327L246.37916666666666,71.97025516508559L248.79583333333332,54.84484479383117L251.21249999999998,48.53439699970068L253.6291666666667,34.88761844662438L256.04583333333335,39.276207431611006L258.4625,50.86877979011006L260.87916666666666,48.72330345201347L263.29583333333335,57.61834570757173L265.7125,58.4112999050118" style="fill: none;" fill="none"></path></g><g><path stroke="rgb(0, 119, 187)" stroke-width="2px" d="M26.4625,154.3440001227639L28.879166666666666,152.25218201767314L31.29583333333333,152.1208274306968L33.7125,151.91498249259223L36.12916666666667,152.82893090010157L38.54583333333333,153.86969845855555L40.9625,152.60810251194792L43.37916666666667,151.12785375406838L45.795833333333334,149.0984422787153L48.212500000000006,147.99757236599214L50.62916666666667,147.43176340862811L53.045833333333334,148.24176689743106L55.4625,146.48385509273072L57.87916666666667,141.39825464724288L60.295833333333334,136.94565963787437L62.7125,134.42995880314245L65.12916666666666,132.5089959744393L67.54583333333333,126.2327601704273L69.96249999999999,113.4688427425684L72.37916666666666,114.01121677753045L74.79583333333333,116.40918286700426L77.21249999999999,114.48810300928477L79.62916666666668,109.40925845288128L82.04583333333333,110.4297773034655L84.4625,84.26673666865773L86.87916666666666,65.54386382316018L89.29583333333333,71.8170875651549L91.71249999999999,89.32909926391002L94.12916666666666,97.68655354679557L96.54583333333333,90.54916769951275L98.9625,87.14208120026979L101.37916666666668,74.11739392380552L103.79583333333333,75.33923484125076L106.2125,73.03437877372784L108.62916666666666,91.66855446445417L111.04583333333333,99.30905963736275L113.46249999999999,105.75990815676798L115.87916666666668,109.61754569407385L118.29583333333333,113.69569145473817L120.7125,113.79974293139817L123.12916666666666,118.07155524601866L125.54583333333333,122.26947860417681L127.96249999999999,122.04634131505173L130.37916666666666,121.10147673045118L132.79583333333335,122.13077734031305L135.2125,122.33642984414207L137.62916666666666,121.54585790645565L140.04583333333332,115.4590048671387L142.4625,116.81438513132778L144.87916666666666,117.47314095540001L147.29583333333335,117.50795769335735L149.7125,111.72324695042586L152.12916666666666,103.64398374818884L154.54583333333335,86.9792637618575L156.9625,54.14421437392624L159.37916666666666,36.76027565027246L161.79583333333332,23.90983733174438L164.2125,18.066119795175094L166.62916666666666,34.51261654596294L169.04583333333332,38.48480707690324L171.4625,36.31117672661062L173.87916666666666,33.359287068459224L176.29583333333332,42.465607819023084L178.71249999999998,51.018854814815896L181.1291666666667,50.95022197979861L183.54583333333335,55.54322409697007L185.9625,59.17436925044056L188.37916666666666,71.12345752105624L190.79583333333335,78.48600139251656L193.2125,82.99363641345738L195.62916666666666,89.58578263376334L198.04583333333332,81.51794387890858L200.4625,64.11345802212497L202.87916666666666,56.50276650805482L205.29583333333332,38.88340693075619L207.7125,35.76509948959716L210.12916666666666,24.200949031471346L212.54583333333332,23.299770990260647L214.96249999999998,17.738700529170572L217.3791666666667,15.89529147339725L219.79583333333335,13.836665007440352L222.2125,14.171963426516784L224.62916666666666,11.57975908840295L227.04583333333335,18.97098194008013L229.4625,16.184114865397504L231.87916666666666,10.00654007513338L234.29583333333332,8.03781338279308L236.7125,9.482616873780978L239.12916666666666,14.790589877464607L241.54583333333332,40.05210095240205L243.9625,51.83635148053212L246.37916666666666,50.59111919353945L248.79583333333332,38.4516161849802L251.21249999999998,31.296641652571925L253.6291666666667,23.231949413595718L256.04583333333335,13.939169648157431L258.4625,13.0363002175166L260.87916666666666,15.674143766873604L263.29583333333335,12.416703656253413L265.7125,14.71023958988131" style="fill: none;" fill="none"></path></g><g><path stroke="rgb(0, 153, 136)" stroke-width="2px" d="M26.4625,151.19018157265404L28.879166666666666,150.40575021483681L31.29583333333333,151.62693504489198L33.7125,150.8938015725906L36.12916666666667,152.25066328683207L38.54583333333333,152.96694398812025L40.9625,151.14980708371178L43.37916666666667,145.81134607410544L45.795833333333334,139.6363596300354L48.212500000000006,137.020470833211L50.62916666666667,132.94177563005277L53.045833333333334,127.89808636432976L55.4625,109.60477766967593L57.87916666666667,98.69562604154237L60.295833333333334,91.21545934855317L62.7125,86.768238395352L65.12916666666666,96.3189964179769L67.54583333333333,102.79511089583536L69.96249999999999,106.04955536649132L72.37916666666666,106.34145337590203L74.79583333333333,93.64357371958594L77.21249999999999,90.06711494676556L79.62916666666668,79.81138954687408L82.04583333333333,91.1135058565241L84.4625,87.67376567621784L86.87916666666666,85.93174655756638L89.29583333333333,82.59519075984147L91.71249999999999,75.61150938157758L94.12916666666666,61.94697175005329L96.54583333333333,42.175668802514494L98.9625,43.79063864505062L101.37916666666668,46.56180237508502L103.79583333333333,52.318026368778554L106.2125,61.75757894239617L108.62916666666666,67.12523915249145L111.04583333333333,74.76117914820264L113.46249999999999,77.20587153325903L115.87916666666668,76.35559407269305L118.29583333333333,64.98084654167586L120.7125,65.53207313348383L123.12916666666666,62.92782491049446L125.54583333333333,64.17153288190939L127.96249999999999,75.37040985578118L130.37916666666666,70.20821033462694L132.79583333333335,58.85947165414196L135.2125,52.55226402458472L137.62916666666666,51.406848538109976L140.04583333333332,44.630800817493665L142.4625,47.452081276223126L144.87916666666666,55.60695628533102L147.29583333333335,57.92533583619566L149.7125,57.29534774194994L152.12916666666666,54.89633513220412L154.54583333333335,51.8864571961517L156.9625,48.18823795405234L159.37916666666666,37.48617992175266L161.79583333333332,35.13272770624709L164.2125,31.86698050691541L166.62916666666666,34.95364284960405L169.04583333333332,33.78054934612601L171.4625,44.13436518562335L173.87916666666666,47.82359935817806L176.29583333333332,52.34136118628471L178.71249999999998,43.273472828603154L181.1291666666667,55.17230109329122L183.54583333333335,50.018143506649416L185.9625,49.474451311731144L188.37916666666666,42.66037830656993L190.79583333333335,45.27862619825304L193.2125,36.2295749332629L195.62916666666666,46.36327066130716L198.04583333333332,57.5024722733823L200.4625,66.78628375687383L202.87916666666666,56.922169468435385L205.29583333333332,51.13242816809958L207.7125,50.79952805675465L210.12916666666666,47.18851526267494L212.54583333333332,53.91696291737058L214.96249999999998,44.3733042374607L217.3791666666667,41.878164360658246L219.79583333333335,47.38384328525147L222.2125,51.1120529970742L224.62916666666666,49.93770609689508L227.04583333333335,41.72829559972085L229.4625,31.138649301416315L231.87916666666666,29.9596994574478L234.29583333333332,27.450147732884883L236.7125,30.83605306178348L239.12916666666666,36.40759625912266L241.54583333333332,32.73488581388979L243.9625,27.506168637659176L246.37916666666666,26.003772338490403L248.79583333333332,28.101682370601335L251.21249999999998,38.20398966916478L253.6291666666667,34.7781764053696L256.04583333333335,31.988941421169216L258.4625,39.28769291111774L260.87916666666666,42.997560415527175L263.29583333333335,43.56289988567995L265.7125,37.581593691173616" style="fill: none;" fill="none"></path></g><g><path stroke="rgb(255, 112, 67)" stroke-width="2px" d="M26.4625,154.3761820637096L28.879166666666666,153.8934544840726L31.29583333333333,154.2218405404737L33.7125,154.76603141214758L36.12916666666667,155.5181785614433L38.54583333333333,155.2010569147581L40.9625,154.70268286505717L43.37916666666667,153.54862594525463L45.795833333333334,149.77382498326602L48.212500000000006,143.9978063706394L50.62916666666667,135.74853733895478L53.045833333333334,133.23062366438876L55.4625,127.7791811162093L57.87916666666667,125.22143119025925L60.295833333333334,119.70852156512751L62.7125,103.53895053968567L65.12916666666666,93.94312749686138L67.54583333333333,89.61569194224845L69.96249999999999,79.19241637653656L72.37916666666666,67.71233840130226L74.79583333333333,67.38979517947773L77.21249999999999,74.44371501428236L79.62916666666668,77.40159821525694L82.04583333333333,71.31104073205718L84.4625,61.43917740573543L86.87916666666666,51.358180941883106L89.29583333333333,68.44190826118653L91.71249999999999,68.12361905990292L94.12916666666666,81.6034847079065L96.54583333333333,58.21757577813133L98.9625,75.94305769466187L101.37916666666668,85.0593630079047L103.79583333333333,101.68980041706072L106.2125,111.75817105495358L108.62916666666666,116.25446595378583L111.04583333333333,121.35944345771227L113.46249999999999,122.51726588537048L115.87916666666668,121.17806901000314L118.29583333333333,94.43600341140862L120.7125,61.411637580647316L123.12916666666666,73.13519995392053L125.54583333333333,98.62882946837416L127.96249999999999,110.35926112435293L130.37916666666666,86.43861200161116L132.79583333333335,57.900475503220456L135.2125,48.3725026974673L137.62916666666666,38.21462810513863L140.04583333333332,33.56165037594036L142.4625,25.131606835890988L144.87916666666666,15.078964101453323L147.29583333333335,14.080615610192453L149.7125,9.941606515428706L152.12916666666666,21.88852911701956L154.54583333333335,35.64751668453724L156.9625,45.228802491197136L159.37916666666666,35.38870046222166L161.79583333333332,26.626892218914822L164.2125,17.598099753400234L166.62916666666666,23.109768942949678L169.04583333333332,17.483098515094824L171.4625,21.830732622018665L173.87916666666666,29.305202423886076L176.29583333333332,28.51206612318816L178.71249999999998,19.63029500505631L181.1291666666667,21.098030762799404L183.54583333333335,24.42449039926345L185.9625,20.215713992754107L188.37916666666666,24.435756454068635L190.79583333333335,20.89185308675227L193.2125,30.84013160524738L195.62916666666666,41.353169872239356L198.04583333333332,67.96128334868095L200.4625,57.15088067149549L202.87916666666666,37.40572997427513L205.29583333333332,22.456311497526727L207.7125,17.73466041147769L210.12916666666666,10.640796246886614L212.54583333333332,12.29305878062487L214.96249999999998,12.859617872245684L217.3791666666667,16.97126084674939L219.79583333333335,13.864357293738559L222.2125,13.99548788920478L224.62916666666666,15.36143897375724L227.04583333333335,23.53133768290492L229.4625,36.02818599930262L231.87916666666666,50.14287602163411L234.29583333333332,42.55939755456427L236.7125,48.61643696136072L239.12916666666666,31.087897754763887L241.54583333333332,23.106703074910868L243.9625,27.843804448817263L246.37916666666666,28.44621151339547L248.79583333333332,32.14169133008983L251.21249999999998,33.779706492833746L253.6291666666667,30.1926974086619L256.04583333333335,30.67940104906789L258.4625,35.37389360351743L260.87916666666666,29.308407318005344L263.29583333333335,33.17391790376485L265.7125,37.30827958636403" style="fill: none;" fill="none"></path></g></g></g></g><g opacity="0.2"><g><g><g><path stroke="rgb(187, 187, 187)" stroke-width="2px" d="M26.4625,154.0221819409457L28.879166666666666,153.70036375912753L31.29583333333333,154.2152729728005L33.7125,155.2129088453813L36.12916666666667,156.1783636977456L38.54583333333333,154.5370911546187L40.9625,148.80872776378285L43.37916666666667,133.87636363636364L45.795833333333334,134.5843626542525L48.212500000000006,121.74381916392932L50.62916666666667,122.35527174516157L53.045833333333334,122.2265464366566L55.4625,125.8309090909091L57.87916666666667,83.96236167214134L60.295833333333334,103.68981719970704L62.7125,115.11436265425249L65.12916666666666,80.48672923694957L67.54583333333333,89.72291007302023L69.96249999999999,98.21890810879795L72.37916666666666,63.8809090909091L74.79583333333333,72.15164029208097L77.21249999999999,93.71345356334339L79.62916666666668,87.98508894486861L82.04583333333333,94.48582014604048L84.4625,97.38218378240411L86.87916666666666,81.03381916392934L89.29583333333333,42.866185746626414L91.71249999999999,56.1250889448686L94.12916666666666,83.1256373457475L96.54583333333333,68.90127469149503L98.9625,49.270365600585926L101.37916666666668,58.377816217595885L103.79583333333333,55.67454545454546L106.2125,81.77400196422231L108.62916666666666,64.17054349032315L111.04583333333333,41.48236167214134L113.46249999999999,60.11563243519176L115.87916666666668,57.25145258123225L118.29583333333333,47.757816217595874L120.7125,59.02145258123225L123.12916666666666,60.72709483753552L125.54583333333333,66.68073120117187L127.96249999999999,88.5965464366566L130.37916666666666,46.9210869806463L132.79583333333335,16.83108698064631L135.2125,42.705276655717334L137.62916666666666,16.15527665571733L140.04583333333332,19.98491105513139L142.4625,30.733636363636354L144.87916666666666,18.665454545454548L147.29583333333335,38.23199607155539L149.7125,29.639456509676847L152.12916666666666,17.31381425337358L154.54583333333335,16.927638327858674L156.9625,17.506907126686787L159.37916666666666,40.1629051624645L161.79583333333332,22.334179853959526L164.2125,44.05690712668679L166.62916666666666,35.27127469149504L169.04583333333332,45.98781621759588L171.4625,52.424179853959515L173.87916666666666,47.918725308504975L176.29583333333332,30.122183782404115L178.71249999999998,86.8909090909091L181.1291666666667,127.47218132712624L183.54583333333335,119.52327076305043L185.9625,127.21472825483842L188.37916666666666,126.0883646184748L190.79583333333335,64.84636363636363L193.2125,34.33800392844459L195.62916666666666,19.43781621759589L198.04583333333332,27.161452581232243L200.4625,51.55527665571732L202.87916666666666,29.8969071266868L205.29583333333332,28.99582014604048L207.7125,28.416541526100854L210.12916666666666,5.342183782404112L212.54583333333332,16.44491105513139L214.96249999999998,38.553814253373574L217.3791666666667,74.72618574662643L219.79583333333335,60.34090909090909L222.2125,47.43599803577769L224.62916666666666,26.260365600585946L227.04583333333335,40.51690712668679L229.4625,43.89599803577769L231.87916666666666,11.488913019353694L234.29583333333332,5.98582014604048L236.7125,31.570365600585934L239.12916666666666,45.89127469149503L241.54583333333332,108.96763832785868L243.9625,77.26854741876775L246.37916666666666,76.39963439941407L248.79583333333332,29.156729236949584L251.21249999999998,39.06872530850497L253.6291666666667,14.417450617009942L256.04583333333335,45.8590909090909L258.4625,68.25763832785866L260.87916666666666,45.50508894486861L263.29583333333335,70.96090909090908L265.7125,59.60073120117188" style="fill: none;" fill="none"></path></g><g><path stroke="rgb(0, 119, 187)" stroke-width="2px" d="M26.4625,154.3440001227639L28.879166666666666,150.9970911546187L31.29583333333333,151.99472702719947L33.7125,151.6729088453813L36.12916666666667,154.0221819409457L38.54583333333333,155.30945466821845L40.9625,150.80400012276388L43.37916666666667,148.96963685469194L45.795833333333334,146.10545454545453L48.212500000000006,146.3629088453813L50.62916666666667,146.5881818181818L53.045833333333334,149.4523641274192L55.4625,143.85272727272726L57.87916666666667,133.77981719970703L60.295833333333334,130.27200098211117L62.7125,130.65818181818182L65.12916666666666,129.6283646184748L67.54583333333333,116.81999999999998L69.96249999999999,94.3249110551314L72.37916666666666,114.82472825483842L74.79583333333333,120.00600049105557L77.21249999999999,111.60654643665661L79.62916666666668,101.79109189120206L82.04583333333333,111.96054349032316L84.4625,45.02236167214134L86.87916666666666,37.45963439941407L89.29583333333333,81.22690712668678L91.71249999999999,115.59708992697976L94.12916666666666,110.22272727272728L96.54583333333333,79.8430928733132L98.9625,82.03145258123223L101.37916666666668,54.580365600585935L103.79583333333333,77.17199607155538L106.2125,69.5770948375355L108.62916666666666,119.61981719970703L111.04583333333333,110.76981719970702L113.46249999999999,115.43618083607066L115.87916666666668,115.40400196422232L118.29583333333333,119.81291007302025L120.7125,113.95582014604048L123.12916666666666,124.47927370938389L125.54583333333333,128.56636363636363L127.96249999999999,121.71163538152521L130.37916666666666,119.68417985395952L132.79583333333335,123.67472825483843L135.2125,122.64490859985354L137.62916666666666,120.35999999999999L140.04583333333332,106.32872530850497L142.4625,118.84745552756569L144.87916666666666,118.46127469149503L147.29583333333335,117.56018280029296L149.7125,103.04618083607066L152.12916666666666,91.52508894486861L154.54583333333335,61.98218378240412L156.9625,4.8916402920809725L159.37916666666666,10.684367564808243L161.79583333333332,4.63417985395951L164.2125,9.300543490323147L166.62916666666666,59.18236167214133L169.04583333333332,44.44309287331321L171.4625,33.05073120117188L173.87916666666666,28.931452581232247L176.29583333333332,56.1250889448686L178.71249999999998,63.848725308504974L181.1291666666667,50.847272727272724L183.54583333333335,62.432727272727284L185.9625,64.62108698064631L188.37916666666666,89.04708992697978L190.79583333333335,89.52981719970704L193.2125,89.7550889448686L195.62916666666666,99.4740019642223L198.04583333333332,69.41618574662643L200.4625,38.00672923694957L202.87916666666666,45.08672923694958L205.29583333333332,12.454367564808246L207.7125,31.087638327858667L210.12916666666666,6.854723344282671L212.54583333333332,21.9480039284446L214.96249999999998,9.397094837535509L217.3791666666667,13.130177889737206L219.79583333333335,10.748725308504964L222.2125,14.674911055131385L224.62916666666666,7.691452581232247L227.04583333333335,30.05781621759588L229.4625,12.003814253373573L231.87916666666666,0.7401778897372158L234.29583333333332,5.0847233442826685L236.7125,11.649822110262775L239.12916666666666,22.75254938299005L241.54583333333332,77.94436756480825L243.9625,69.51272727272728L246.37916666666666,48.72327076305043L248.79583333333332,20.24236167214134L251.21249999999998,20.564179853959523L253.6291666666667,11.134911055131383L256.04583333333335,0L258.4625,11.681996071555389L260.87916666666666,19.6309090909091L263.29583333333335,7.530543490323145L265.7125,18.150543490323155" style="fill: none;" fill="none"></path></g><g><path stroke="rgb(0, 153, 136)" stroke-width="2px" d="M26.4625,151.19018157265404L28.879166666666666,149.9350914001465L31.29583333333333,152.79927248174494L33.7125,150.03163660916414L36.12916666666667,154.0221819409457L38.54583333333333,153.9578180590543L40.9625,148.55127223621716L43.37916666666667,138.02781867287376L45.795833333333334,130.52945405439897L48.212500000000006,133.13618083607068L50.62916666666667,126.86072629061613L53.045833333333334,120.35999999999999L55.4625,82.22454545454546L57.87916666666667,82.35327076305042L60.295833333333334,80.0040019642223L62.7125,80.10054349032315L65.12916666666666,110.64109189120207L67.54583333333333,112.50763832785869L69.96249999999999,110.93072629061612L72.37916666666666,106.77927370938387L74.79583333333333,74.59745061700994L77.21249999999999,84.7025444724343L79.62916666666668,64.4280039284446L82.04583333333333,108.06654643665661L84.4625,82.51417985395952L86.87916666666666,83.31872530850497L89.29583333333333,77.59036560058594L91.71249999999999,65.1359980357777L94.12916666666666,41.45017788973721L96.54583333333333,12.518725308504965L98.9625,46.21309287331321L101.37916666666668,50.71854741876776L103.79583333333333,60.952361672141336L106.2125,75.91690712668678L108.62916666666666,75.17672923694957L111.04583333333333,86.21508894486861L113.46249999999999,80.87291007302024L115.87916666666668,75.08017788973723L118.29583333333333,47.918725308504975L120.7125,66.35891301935371L123.12916666666666,59.02145258123225L125.54583333333333,66.03709483753552L127.96249999999999,92.16872530850497L130.37916666666666,62.46491105513139L132.79583333333335,41.83636363636363L135.2125,43.09145258123224L137.62916666666666,49.68872530850498L140.04583333333332,34.46672923694957L142.4625,51.6840019642223L144.87916666666666,67.83926879882813L147.29583333333335,61.4029051624645L149.7125,56.35036560058593L152.12916666666666,51.29781621759588L154.54583333333335,47.37164029208097L156.9625,42.6409090909091L159.37916666666666,21.433092873313207L161.79583333333332,31.60254938299006L164.2125,26.968359707919035L166.62916666666666,39.583636363636366L169.04583333333332,32.02090909090909L171.4625,59.6650889448686L173.87916666666666,53.35745061700994L176.29583333333332,59.118003928444594L178.71249999999998,29.671640292080976L181.1291666666667,73.02054349032315L183.54583333333335,42.28690712668679L185.9625,48.65891301935369L188.37916666666666,32.439268798828124L190.79583333333335,49.2059980357777L193.2125,22.65599803577769L195.62916666666666,61.56381425337358L198.04583333333332,74.21127469149503L200.4625,80.71200098211116L202.87916666666666,42.125998035777705L205.29583333333332,42.44781621759587L207.7125,50.30017788973722L210.12916666666666,41.7719960715554L212.54583333333332,64.00963439941405L214.96249999999998,30.05781621759588L217.3791666666667,38.13545454545454L219.79583333333335,55.642361672141334L222.2125,56.704367564808244L224.62916666666666,48.17618574662642L227.04583333333335,29.414179853959514L229.4625,15.254179853959519L231.87916666666666,28.191274691495032L234.29583333333332,23.685820146040477L236.7125,35.914911055131384L239.12916666666666,44.76491105513139L241.54583333333332,27.22582014604048L243.9625,19.663092873313207L246.37916666666666,23.750177889737216L248.79583333333332,31.24854741876775L251.21249999999998,53.35745061700994L253.6291666666667,29.639456509676847L256.04583333333335,27.80508894486861L258.4625,50.23582014604048L260.87916666666666,48.56236167214133L263.29583333333335,44.41090909090908L265.7125,28.609634399414062" style="fill: none;" fill="none"></path></g><g><path stroke="rgb(255, 112, 67)" stroke-width="2px" d="M26.4625,154.3761820637096L28.879166666666666,153.6038179362904L31.29583333333333,154.5370911546187L33.7125,155.4059998772361L36.12916666666667,156.50018187956377L38.54583333333333,154.76236351359975L40.9625,153.99L43.37916666666667,151.8659998772361L45.795833333333334,144.2067267816717L48.212500000000006,135.42109189120205L50.62916666666667,123.44945405439896L53.045833333333334,129.4674555275657L55.4625,119.61981719970703L57.87916666666667,121.38981719970702L60.295833333333334,111.44563734574751L62.7125,79.2959980357777L65.12916666666666,79.5534535633434L67.54583333333333,83.1256373457475L69.96249999999999,63.55909090909091L72.37916666666666,50.49327076305043L74.79583333333333,66.90599803577769L77.21249999999999,85.02436265425249L79.62916666666668,81.8383646184748L82.04583333333333,62.17527665571733L84.4625,46.631452581232246L86.87916666666666,36.23672923694957L89.29583333333333,94.0674555275657L91.71249999999999,67.64618574662641L94.12916666666666,101.82327076305042L96.54583333333333,23.138725308504977L98.9625,102.53127469149504L101.37916666666668,98.73381916392934L103.79583333333333,126.63545454545455L106.2125,126.86072629061613L108.62916666666666,122.99890810879793L111.04583333333333,129.01690958196465L113.46249999999999,124.25399950894443L115.87916666666668,119.16927370938389L118.29583333333333,54.32290516246449L120.7125,11.8750889448686L123.12916666666666,90.72054349032314L125.54583333333333,136.8692737093839L127.96249999999999,127.95490859985351L130.37916666666666,50.55763832785866L132.79583333333335,15.093270763050418L135.2125,34.08054349032315L137.62916666666666,22.977816217595873L140.04583333333332,26.582183782404112L142.4625,12.48654152610086L144.87916666666666,0L147.29583333333335,12.58309287331322L149.7125,3.733092873313212L152.12916666666666,39.808913019353696L154.54583333333335,56.2859980357777L156.9625,59.60073120117188L159.37916666666666,20.62854741876776L161.79583333333332,13.484179853959517L164.2125,4.054911055131396L166.62916666666666,31.37727272727272L169.04583333333332,9.043092873313217L171.4625,28.35218378240411L173.87916666666666,40.51690712668679L176.29583333333332,27.322361672141326L178.71249999999998,6.307638327858664L181.1291666666667,23.299634399414057L183.54583333333335,29.414179853959514L185.9625,13.902549382990063L188.37916666666666,30.765820146040483L190.79583333333335,15.575998035777703L193.2125,45.76254938299005L195.62916666666666,57.122727272727275L198.04583333333332,107.87345356334339L200.4625,40.93527665571733L202.87916666666666,7.788003928444608L205.29583333333332,0.03218378240412689L207.7125,10.652183782404117L210.12916666666666,0L212.54583333333332,14.771452581232253L214.96249999999998,13.709456509676853L217.3791666666667,23.138725308504977L219.79583333333335,9.204001964222298L222.2125,14.19218378240412L224.62916666666666,17.41036560058594L227.04583333333335,35.78618574662643L229.4625,54.77345847389914L231.87916666666666,71.3149110551314L234.29583333333332,31.184179853959513L236.7125,57.70199607155539L239.12916666666666,4.795088944868612L241.54583333333332,11.134911055131383L243.9625,34.94945650967685L246.37916666666666,29.349822110262792L248.79583333333332,37.68491105513139L251.21249999999998,36.23672923694957L253.6291666666667,24.81218378240411L256.04583333333335,31.40945650967685L258.4625,42.41563243519177L260.87916666666666,20.210177889737214L263.29583333333335,38.97218378240412L265.7125,43.50982211026278" style="fill: none;" fill="none"></path></g></g></g></g></g></g><g transform="translate(40, 177)" clip-path="url(#clip_1)"><clipPath id="clip_1"><rect width="290" height="23"></rect></clipPath><g><g><line x1="0" y1="0" x2="0" y2="5" style="visibility: inherit;" fill="rgb(0, 0, 0)" stroke="rgb(204, 204, 204)" stroke-width="1px"></line><line x1="24.166666666666664" y1="0" x2="24.166666666666664" y2="5" style="visibility: inherit;" fill="rgb(0, 0, 0)" stroke="rgb(204, 204, 204)" stroke-width="1px"></line><line x1="48.33333333333333" y1="0" x2="48.33333333333333" y2="5" style="visibility: inherit;" fill="rgb(0, 0, 0)" stroke="rgb(204, 204, 204)" stroke-width="1px"></line><line x1="72.5" y1="0" x2="72.5" y2="5" style="visibility: inherit;" fill="rgb(0, 0, 0)" stroke="rgb(204, 204, 204)" stroke-width="1px"></line><line x1="96.66666666666666" y1="0" x2="96.66666666666666" y2="5" style="visibility: inherit;" fill="rgb(0, 0, 0)" stroke="rgb(204, 204, 204)" stroke-width="1px"></line><line x1="120.83333333333334" y1="0" x2="120.83333333333334" y2="5" style="visibility: inherit;" fill="rgb(0, 0, 0)" stroke="rgb(204, 204, 204)" stroke-width="1px"></line><line x1="145" y1="0" x2="145" y2="5" style="visibility: inherit;" fill="rgb(0, 0, 0)" stroke="rgb(204, 204, 204)" stroke-width="1px"></line><line x1="169.16666666666669" y1="0" x2="169.16666666666669" y2="5" style="visibility: inherit;" fill="rgb(0, 0, 0)" stroke="rgb(204, 204, 204)" stroke-width="1px"></line><line x1="193.33333333333331" y1="0" x2="193.33333333333331" y2="5" style="visibility: inherit;" fill="rgb(0, 0, 0)" stroke="rgb(204, 204, 204)" stroke-width="1px"></line><line x1="217.5" y1="0" x2="217.5" y2="5" style="visibility: inherit;" fill="rgb(0, 0, 0)" stroke="rgb(204, 204, 204)" stroke-width="1px"></line><line x1="241.66666666666669" y1="0" x2="241.66666666666669" y2="5" style="visibility: inherit;" fill="rgb(0, 0, 0)" stroke="rgb(204, 204, 204)" stroke-width="1px"></line><line x1="265.8333333333333" y1="0" x2="265.8333333333333" y2="5" style="visibility: inherit;" fill="rgb(0, 0, 0)" stroke="rgb(204, 204, 204)" stroke-width="1px"></line><line x1="290" y1="0" x2="290" y2="5" style="visibility: inherit;" fill="rgb(0, 0, 0)" stroke="rgb(204, 204, 204)" stroke-width="1px"></line></g><g transform="translate(0, 8)"><text x="0" y="0" dx="0em" dy="0.95em" style="text-anchor: middle; visibility: hidden; font-family: Roboto, sans-serif; font-size: 12px; font-weight: 200;" fill="rgb(33, 33, 33)" stroke="none" stroke-width="1px">-200</text><text x="24.166666666666664" y="0" dx="0em" dy="0.95em" style="text-anchor: middle; visibility: inherit; font-family: Roboto, sans-serif; font-size: 12px; font-weight: 200;" fill="rgb(33, 33, 33)" stroke="none" stroke-width="1px">0</text><text x="48.33333333333333" y="0" dx="0em" dy="0.95em" style="text-anchor: middle; visibility: hidden; font-family: Roboto, sans-serif; font-size: 12px; font-weight: 200;" fill="rgb(33, 33, 33)" stroke="none" stroke-width="1px">200</text><text x="72.5" y="0" dx="0em" dy="0.95em" style="text-anchor: middle; visibility: inherit; font-family: Roboto, sans-serif; font-size: 12px; font-weight: 200;" fill="rgb(33, 33, 33)" stroke="none" stroke-width="1px">400</text><text x="96.66666666666666" y="0" dx="0em" dy="0.95em" style="text-anchor: middle; visibility: hidden; font-family: Roboto, sans-serif; font-size: 12px; font-weight: 200;" fill="rgb(33, 33, 33)" stroke="none" stroke-width="1px">600</text><text x="120.83333333333334" y="0" dx="0em" dy="0.95em" style="text-anchor: middle; visibility: inherit; font-family: Roboto, sans-serif; font-size: 12px; font-weight: 200;" fill="rgb(33, 33, 33)" stroke="none" stroke-width="1px">800</text><text x="145" y="0" dx="0em" dy="0.95em" style="text-anchor: middle; visibility: hidden; font-family: Roboto, sans-serif; font-size: 12px; font-weight: 200;" fill="rgb(33, 33, 33)" stroke="none" stroke-width="1px">1k</text><text x="169.16666666666669" y="0" dx="0em" dy="0.95em" style="text-anchor: middle; visibility: inherit; font-family: Roboto, sans-serif; font-size: 12px; font-weight: 200;" fill="rgb(33, 33, 33)" stroke="none" stroke-width="1px">1.2k</text><text x="193.33333333333331" y="0" dx="0em" dy="0.95em" style="text-anchor: middle; visibility: hidden; font-family: Roboto, sans-serif; font-size: 12px; font-weight: 200;" fill="rgb(33, 33, 33)" stroke="none" stroke-width="1px">1.4k</text><text x="217.5" y="0" dx="0em" dy="0.95em" style="text-anchor: middle; visibility: inherit; font-family: Roboto, sans-serif; font-size: 12px; font-weight: 200;" fill="rgb(33, 33, 33)" stroke="none" stroke-width="1px">1.6k</text><text x="241.66666666666669" y="0" dx="0em" dy="0.95em" style="text-anchor: middle; visibility: hidden; font-family: Roboto, sans-serif; font-size: 12px; font-weight: 200;" fill="rgb(33, 33, 33)" stroke="none" stroke-width="1px">1.8k</text><text x="265.8333333333333" y="0" dx="0em" dy="0.95em" style="text-anchor: middle; visibility: inherit; font-family: Roboto, sans-serif; font-size: 12px; font-weight: 200;" fill="rgb(33, 33, 33)" stroke="none" stroke-width="1px">2k</text><text x="290" y="0" dx="0em" dy="0.95em" style="text-anchor: middle; visibility: hidden; font-family: Roboto, sans-serif; font-size: 12px; font-weight: 200;" fill="rgb(33, 33, 33)" stroke="none" stroke-width="1px">2.2k</text></g><line x1="0" y1="0" x2="290" y2="0" fill="rgb(0, 0, 0)" stroke="rgb(204, 204, 204)" stroke-width="1px"></line></g></g></g></g></svg>