<svg viewBox="0 0 330 200" xmlns="http://www.w3.org/2000/svg"><g><g><g><g><g><line x1="40" y1="177" x2="35" y2="177" style="visibility: inherit;" fill="rgb(0, 0, 0)" stroke="rgb(204, 204, 204)" stroke-width="1px"></line><line x1="40" y1="160.9090909090909" x2="35" y2="160.9090909090909" style="visibility: inherit;" fill="rgb(0, 0, 0)" stroke="rgb(204, 204, 204)" stroke-width="1px"></line><line x1="40" y1="144.8181818181818" x2="35" y2="144.8181818181818" style="visibility: inherit;" fill="rgb(0, 0, 0)" stroke="rgb(204, 204, 204)" stroke-width="1px"></line><line x1="40" y1="128.72727272727272" x2="35" y2="128.72727272727272" style="visibility: inherit;" fill="rgb(0, 0, 0)" stroke="rgb(204, 204, 204)" stroke-width="1px"></line><line x1="40" y1="112.63636363636364" x2="35" y2="112.63636363636364" style="visibility: inherit;" fill="rgb(0, 0, 0)" stroke="rgb(204, 204, 204)" stroke-width="1px"></line><line x1="40" y1="96.54545454545453" x2="35" y2="96.54545454545453" style="visibility: inherit;" fill="rgb(0, 0, 0)" stroke="rgb(204, 204, 204)" stroke-width="1px"></line><line x1="40" y1="80.45454545454547" x2="35" y2="80.45454545454547" style="visibility: inherit;" fill="rgb(0, 0, 0)" stroke="rgb(204, 204, 204)" stroke-width="1px"></line><line x1="40" y1="64.36363636363636" x2="35" y2="64.36363636363636" style="visibility: inherit;" fill="rgb(0, 0, 0)" stroke="rgb(204, 204, 204)" stroke-width="1px"></line><line x1="40" y1="48.272727272727266" x2="35" y2="48.272727272727266" style="visibility: inherit;" fill="rgb(0, 0, 0)" stroke="rgb(204, 204, 204)" stroke-width="1px"></line><line x1="40" y1="32.18181818181817" x2="35" y2="32.18181818181817" style="visibility: inherit;" fill="rgb(0, 0, 0)" stroke="rgb(204, 204, 204)" stroke-width="1px"></line><line x1="40" y1="16.090909090909097" x2="35" y2="16.090909090909097" style="visibility: inherit;" fill="rgb(0, 0, 0)" stroke="rgb(204, 204, 204)" stroke-width="1px"></line><line x1="40" y1="0" x2="35" y2="0" style="visibility: inherit;" fill="rgb(0, 0, 0)" stroke="rgb(204, 204, 204)" stroke-width="1px"></line></g><g transform="translate(30, 0)"><text x="0" y="177" dx="0em" dy="0.3em" style="text-anchor: end; visibility: hidden; font-family: Roboto, sans-serif; font-size: 12px; font-weight: 200;" fill="rgb(33, 33, 33)" stroke="none" stroke-width="1px">-50</text><text x="0" y="160.9090909090909" dx="0em" dy="0.3em" style="text-anchor: end; visibility: inherit; font-family: Roboto, sans-serif; font-size: 12px; font-weight: 200;" fill="rgb(33, 33, 33)" stroke="none" stroke-width="1px">0</text><text x="0" y="144.8181818181818" dx="0em" dy="0.3em" style="text-anchor: end; visibility: hidden; font-family: Roboto, sans-serif; font-size: 12px; font-weight: 200;" fill="rgb(33, 33, 33)" stroke="none" stroke-width="1px">50</text><text x="0" y="128.72727272727272" dx="0em" dy="0.3em" style="text-anchor: end; visibility: inherit; font-family: Roboto, sans-serif; font-size: 12px; font-weight: 200;" fill="rgb(33, 33, 33)" stroke="none" stroke-width="1px">100</text><text x="0" y="112.63636363636364" dx="0em" dy="0.3em" style="text-anchor: end; visibility: hidden; font-family: Roboto, sans-serif; font-size: 12px; font-weight: 200;" fill="rgb(33, 33, 33)" stroke="none" stroke-width="1px">150</text><text x="0" y="96.54545454545453" dx="0em" dy="0.3em" style="text-anchor: end; visibility: inherit; font-family: Roboto, sans-serif; font-size: 12px; font-weight: 200;" fill="rgb(33, 33, 33)" stroke="none" stroke-width="1px">200</text><text x="0" y="80.45454545454547" dx="0em" dy="0.3em" style="text-anchor: end; visibility: hidden; font-family: Roboto, sans-serif; font-size: 12px; font-weight: 200;" fill="rgb(33, 33, 33)" stroke="none" stroke-width="1px">250</text><text x="0" y="64.36363636363636" dx="0em" dy="0.3em" style="text-anchor: end; visibility: inherit; font-family: Roboto, sans-serif; font-size: 12px; font-weight: 200;" fill="rgb(33, 33, 33)" stroke="none" stroke-width="1px">300</text><text x="0" y="48.272727272727266" dx="0em" dy="0.3em" style="text-anchor: end; visibility: hidden; font-family: Roboto, sans-serif; font-size: 12px; font-weight: 200;" fill="rgb(33, 33, 33)" stroke="none" stroke-width="1px">350</text><text x="0" y="32.18181818181817" dx="0em" dy="0.3em" style="text-anchor: end; visibility: inherit; font-family: Roboto, sans-serif; font-size: 12px; font-weight: 200;" fill="rgb(33, 33, 33)" stroke="none" stroke-width="1px">400</text><text x="0" y="16.090909090909097" dx="0em" dy="0.3em" style="text-anchor: end; visibility: hidden; font-family: Roboto, sans-serif; font-size: 12px; font-weight: 200;" fill="rgb(33, 33, 33)" stroke="none" stroke-width="1px">450</text><text x="0" y="0" dx="0em" dy="0.3em" style="text-anchor: end; visibility: hidden; font-family: Roboto, sans-serif; font-size: 12px; font-weight: 200;" fill="rgb(33, 33, 33)" stroke="none" stroke-width="1px">500</text></g><line x1="40" y1="0" x2="40" y2="177" fill="rgb(0, 0, 0)" stroke="rgb(204, 204, 204)" stroke-width="1px"></line></g></g><g transform="translate(40, 0)" clip-path="url(#clip_0)"><clipPath id="clip_0"><rect width="290" height="177"></rect></clipPath><g><g><g><line x1="0" y1="0" x2="0" y2="177" fill="rgb(0, 0, 0)" stroke="rgb(66, 66, 66)" stroke-width="1px" opacity="0.25"></line><line x1="24.166666666666664" y1="0" x2="24.166666666666664" y2="177" fill="rgb(0, 0, 0)" stroke="rgb(66, 66, 66)" stroke-width="1px" opacity="0.25"></line><line x1="48.33333333333333" y1="0" x2="48.33333333333333" y2="177" fill="rgb(0, 0, 0)" stroke="rgb(66, 66, 66)" stroke-width="1px" opacity="0.25"></line><line x1="72.5" y1="0" x2="72.5" y2="177" fill="rgb(0, 0, 0)" stroke="rgb(66, 66, 66)" stroke-width="1px" opacity="0.25"></line><line x1="96.66666666666666" y1="0" x2="96.66666666666666" y2="177" fill="rgb(0, 0, 0)" stroke="rgb(66, 66, 66)" stroke-width="1px" opacity="0.25"></line><line x1="120.83333333333334" y1="0" x2="120.83333333333334" y2="177" fill="rgb(0, 0, 0)" stroke="rgb(66, 66, 66)" stroke-width="1px" opacity="0.25"></line><line x1="145" y1="0" x2="145" y2="177" fill="rgb(0, 0, 0)" stroke="rgb(66, 66, 66)" stroke-width="1px" opacity="0.25"></line><line x1="169.16666666666669" y1="0" x2="169.16666666666669" y2="177" fill="rgb(0, 0, 0)" stroke="rgb(66, 66, 66)" stroke-width="1px" opacity="0.25"></line><line x1="193.33333333333331" y1="0" x2="193.33333333333331" y2="177" fill="rgb(0, 0, 0)" stroke="rgb(66, 66, 66)" stroke-width="1px" opacity="0.25"></line><line x1="217.5" y1="0" x2="217.5" y2="177" fill="rgb(0, 0, 0)" stroke="rgb(66, 66, 66)" stroke-width="1px" opacity="0.25"></line><line x1="241.66666666666669" y1="0" x2="241.66666666666669" y2="177" fill="rgb(0, 0, 0)" stroke="rgb(66, 66, 66)" stroke-width="1px" opacity="0.25"></line><line x1="265.8333333333333" y1="0" x2="265.8333333333333" y2="177" fill="rgb(0, 0, 0)" stroke="rgb(66, 66, 66)" stroke-width="1px" opacity="0.25"></line><line x1="290" y1="0" x2="290" y2="177" fill="rgb(0, 0, 0)" stroke="rgb(66, 66, 66)" stroke-width="1px" opacity="0.25"></line></g><g><line x1="0" y1="177" x2="290" y2="177" fill="rgb(0, 0, 0)" stroke="rgb(66, 66, 66)" stroke-width="1px" opacity="0.25"></line><line x1="0" y1="160.9090909090909" x2="290" y2="160.9090909090909" fill="rgb(0, 0, 0)" stroke="rgb(66, 66, 66)" stroke-width="1px" opacity="0.25"></line><line x1="0" y1="144.8181818181818" x2="290" y2="144.8181818181818" fill="rgb(0, 0, 0)" stroke="rgb(66, 66, 66)" stroke-width="1px" opacity="0.25"></line><line x1="0" y1="128.72727272727272" x2="290" y2="128.72727272727272" fill="rgb(0, 0, 0)" stroke="rgb(66, 66, 66)" stroke-width="1px" opacity="0.25"></line><line x1="0" y1="112.63636363636364" x2="290" y2="112.63636363636364" fill="rgb(0, 0, 0)" stroke="rgb(66, 66, 66)" stroke-width="1px" opacity="0.25"></line><line x1="0" y1="96.54545454545453" x2="290" y2="96.54545454545453" fill="rgb(0, 0, 0)" stroke="rgb(66, 66, 66)" stroke-width="1px" opacity="0.25"></line><line x1="0" y1="80.45454545454547" x2="290" y2="80.45454545454547" fill="rgb(0, 0, 0)" stroke="rgb(66, 66, 66)" stroke-width="1px" opacity="0.25"></line><line x1="0" y1="64.36363636363636" x2="290" y2="64.36363636363636" fill="rgb(0, 0, 0)" stroke="rgb(66, 66, 66)" stroke-width="1px" opacity="0.25"></line><line x1="0" y1="48.272727272727266" x2="290" y2="48.272727272727266" fill="rgb(0, 0, 0)" stroke="rgb(66, 66, 66)" stroke-width="1px" opacity="0.25"></line><line x1="0" y1="32.18181818181817" x2="290" y2="32.18181818181817" fill="rgb(0, 0, 0)" stroke="rgb(66, 66, 66)" stroke-width="1px" opacity="0.25"></line><line x1="0" y1="16.090909090909097" x2="290" y2="16.090909090909097" fill="rgb(0, 0, 0)" stroke="rgb(66, 66, 66)" stroke-width="1px" opacity="0.25"></line><line x1="0" y1="0" x2="290" y2="0" fill="rgb(0, 0, 0)" stroke="rgb(66, 66, 66)" stroke-width="1px" opacity="0.25"></line></g></g></g><g><g><line x1="0" y1="160.9090909090909" x2="290" y2="160.9090909090909" fill="rgb(0, 0, 0)" stroke="rgb(153, 153, 153)" stroke-width="1.5px"></line></g></g><g><g><line x1="24.166666666666664" y1="0" x2="24.166666666666664" y2="177" fill="rgb(0, 0, 0)" stroke="rgb(153, 153, 153)" stroke-width="1.5px"></line></g></g><g><g><g><g><g><path stroke="rgb(51, 187, 238)" stroke-width="2px" d="M26.4625,153.7969089681452L28.879166666666666,154.13884093978186L31.29583333333333,153.55390347744407L33.7125,154.2423668400489L36.12916666666667,153.72812350011236L38.54583333333333,153.94602209697325L40.9625,153.77871149953077L43.37916666666667,153.36715072087796L45.795833333333334,153.67084179887408L48.212500000000006,152.65959052780187L50.62916666666667,152.85778239273586L53.045833333333334,152.31829499078336L55.4625,150.65484096812864L57.87916666666667,151.13968447533324L60.295833333333334,150.34852960515042L62.7125,149.8225691874535L65.12916666666666,148.65734427882003L67.54583333333333,148.79514783534253L69.96249999999999,146.71507113882623L72.37916666666666,145.54434523603618L74.79583333333333,143.2070647633022L77.21249999999999,138.80534495100326L79.62916666666668,137.3486500120963L82.04583333333333,133.42378998443695L84.4625,125.31476081305667L86.87916666666666,116.02113115084636L89.29583333333333,110.59943599212976L91.71249999999999,108.26038743160892L94.12916666666666,88.59055326990267L96.54583333333333,68.2282918824292L98.9625,48.197189868574256L101.37916666666668,46.309369102042766L103.79583333333333,41.7782773616895L106.2125,33.31838514213491L108.62916666666666,31.331904564093595L111.04583333333333,20.7171782069188L113.46249999999999,14.811761433059218L115.87916666666668,18.103930385021638L118.29583333333333,14.749923431282014L120.7125,17.062752490483028L123.12916666666666,12.863687068869442L125.54583333333333,14.785338729284744L127.96249999999999,18.19105699831982L130.37916666666666,28.215578869585112L132.79583333333335,36.36716550441657L135.2125,29.569682691785673L137.62916666666666,35.85373845941169L140.04583333333332,36.586207497716L142.4625,33.57579565448394L144.87916666666666,26.530350905595064L147.29583333333335,24.298356783580584L149.7125,19.586504193536637L152.12916666666666,15.266155490191153L154.54583333333335,14.334531229127919L156.9625,19.040501341350453L159.37916666666666,19.057826506159696L161.79583333333332,17.716585241408577L164.2125,28.059623086430353L166.62916666666666,37.71533905960046L169.04583333333332,60.59087537734519L171.4625,62.30594419391427L173.87916666666666,61.50705663975053L176.29583333333332,60.12663319816138L178.71249999999998,59.388489795494834L181.1291666666667,74.6117124519596L183.54583333333335,71.90273499070702L185.9625,73.83022202691713L188.37916666666666,71.43384073568151L190.79583333333335,77.56517795437057L193.2125,82.76296053238796L195.62916666666666,81.50490280647112L198.04583333333332,82.92556025854533L200.4625,89.75089939864635L202.87916666666666,92.57170366839591L205.29583333333332,89.88745895751838L207.7125,93.65771252383632L210.12916666666666,100.37382712145732L212.54583333333332,94.8905512111734L214.96249999999998,91.72931293773033L217.3791666666667,95.36784270093719L219.79583333333335,85.66943289328958L222.2125,70.67213403462432L224.62916666666666,65.26524484282716L227.04583333333335,67.85245521091645L229.4625,71.83772610062657L231.87916666666666,84.96474435844058L234.29583333333332,88.6830640111936L236.7125,91.60918425410607L239.12916666666666,91.21511133815257L241.54583333333332,94.49292056265719L243.9625,92.8294973992953L246.37916666666666,106.90540792333074L248.79583333333332,114.05080799751761L251.21249999999998,116.58735732936105L253.6291666666667,115.94666933591564L256.04583333333335,115.3691656307575L258.4625,115.12564561868886L260.87916666666666,110.19087749461532L263.29583333333335,105.35059961688637L265.7125,103.73370561752175" style="fill: none;" fill="none"></path></g><g><path stroke="rgb(204, 51, 17)" stroke-width="2px" d="M26.4625,153.8612728500366L28.879166666666666,154.5652501227639L31.29583333333333,154.4852058717802L33.7125,154.67173380918044L36.12916666666667,155.0879113945622L38.54583333333333,155.35640069726597L40.9625,155.8270894426478L43.37916666666667,156.23185214932485L45.795833333333334,156.58734839357538L48.212500000000006,156.79833933860868L50.62916666666667,156.45900893519342L53.045833333333334,156.359406681402L55.4625,155.92598702359717L57.87916666666667,155.84665727168306L60.295833333333334,154.16349397220185L62.7125,152.85794620666013L65.12916666666666,153.37521891734986L67.54583333333333,153.71127466933774L69.96249999999999,154.09311539127177L72.37916666666666,153.7815305208937L74.79583333333333,154.431332518105L77.21249999999999,155.11728124215693L79.62916666666668,154.91094888490142L82.04583333333333,153.97616495068365L84.4625,153.51827943770476L86.87916666666666,153.8871864246234L89.29583333333333,153.87682098417977L91.71249999999999,154.4370020254209L94.12916666666666,154.36118290728717L96.54583333333333,154.45729153469568L98.9625,154.64368398734484L101.37916666666668,154.89711950348607L103.79583333333333,154.5728897702161L106.2125,154.4169702704043L108.62916666666666,154.19469129843608L111.04583333333333,153.63652376600245L113.46249999999999,152.4648959723214L115.87916666666668,151.49159222344443L118.29583333333333,150.18673695291915L120.7125,150.1633148989929L123.12916666666666,149.7502073173048L125.54583333333333,149.4508516629661L127.96249999999999,147.4433108989889L130.37916666666666,147.56467725208304L132.79583333333335,147.03247927488945L135.2125,146.09526918663482L137.62916666666666,144.799198071991L140.04583333333332,145.9910825777961L142.4625,146.1011950012246L144.87916666666666,145.7810806370958L147.29583333333335,145.65337565498413L149.7125,145.08758912756358L152.12916666666666,144.41342600738747L154.54583333333335,144.81991034630968L156.9625,144.43303711687648L159.37916666666666,144.98614934643112L161.79583333333332,145.0605621387092L164.2125,145.6716100104983L166.62916666666666,146.1927115590556L169.04583333333332,145.86173612455354L171.4625,145.3799507656412L173.87916666666666,145.56717055759583L176.29583333333332,144.81702960728478L178.71249999999998,145.08781756794863L181.1291666666667,144.786872358951L183.54583333333335,144.90237786261403L185.9625,144.01909964126338L188.37916666666666,141.39087777015396L190.79583333333335,139.67234484391057L193.2125,138.03620729919078L195.62916666666666,137.49219671394275L198.04583333333332,138.31146328648887L200.4625,138.44258745564687L202.87916666666666,139.49958903344674L205.29583333333332,138.4732079655226L207.7125,137.27810659749537L210.12916666666666,135.64708233673764L212.54583333333332,134.82294011471126L214.96249999999998,129.61703679609948L217.3791666666667,128.19269441208797L219.79583333333335,128.3292895709477L222.2125,126.13277334972419L224.62916666666666,126.03777270789915L227.04583333333335,124.757863231895L229.4625,125.77922683362387L231.87916666666666,118.74564479823896L234.29583333333332,112.22127818087873L236.7125,111.38323924295551L239.12916666666666,110.19816094190257L241.54583333333332,113.77373253593343L243.9625,107.2428580962227L246.37916666666666,109.61909628307097L248.79583333333332,114.829421209784L251.21249999999998,115.44543532974114L253.6291666666667,121.50478886341642L256.04583333333335,122.95203734725796L258.4625,122.01820461938104L260.87916666666666,121.3034316661155L263.29583333333335,119.81900366852581L265.7125,117.4222381719074" style="fill: none;" fill="none"></path></g><g><path stroke="rgb(255, 112, 67)" stroke-width="2px" d="M26.4625,153.6038179362904L28.879166666666666,153.46302271192724L31.29583333333333,152.38550636072105L33.7125,153.25597046005535L36.12916666666667,152.89039124935076L38.54583333333333,152.52809504516608L40.9625,153.8051145400462L43.37916666666667,153.42208992679414L45.795833333333334,152.7803135028926L48.212500000000006,153.02106204704353L50.62916666666667,152.660711804548L53.045833333333334,151.85190289452217L55.4625,151.72865344254248L57.87916666666667,149.19418767258125L60.295833333333334,145.24069028850082L62.7125,136.43160195615843L65.12916666666666,120.29419407167181L67.54583333333333,118.86575279590637L69.96249999999999,123.63450609895698L72.37916666666666,118.87463832913163L74.79583333333333,116.9199397245077L77.21249999999999,113.06958509726479L79.62916666666668,116.64228816756167L82.04583333333333,122.11994431030611L84.4625,128.4831121460026L86.87916666666666,130.3185976913318L89.29583333333333,128.6265027303461L91.71249999999999,122.397789115126L94.12916666666666,118.18427270226687L96.54583333333333,103.86474227386722L98.9625,106.42081012542086L101.37916666666668,107.6712490254454L103.79583333333333,113.36464098907328L106.2125,115.53202180486728L108.62916666666666,114.12917748085702L111.04583333333333,117.41961522051783L113.46249999999999,122.92100533357105L115.87916666666668,126.35056665281864L118.29583333333333,124.4306305036602L120.7125,109.98114113355547L123.12916666666666,117.08053942770412L125.54583333333333,120.29748768737865L127.96249999999999,116.22896494568073L130.37916666666666,90.38523272269683L132.79583333333335,79.28146769088009L135.2125,93.85920867385342L137.62916666666666,91.5610528697978L140.04583333333332,97.1849222382514L142.4625,102.7089889209727L144.87916666666666,92.13375698886178L147.29583333333335,63.11974431657834L149.7125,54.72224580423366L152.12916666666666,57.446003599377306L154.54583333333335,55.308546828480694L156.9625,63.48752731140464L159.37916666666666,62.98837014660822L161.79583333333332,65.93280469183634L164.2125,69.05110178260931L166.62916666666666,72.17073222546072L169.04583333333332,68.67458557551065L171.4625,71.04373159211042L173.87916666666666,90.53852947151306L176.29583333333332,87.17431729006333L178.71249999999998,89.5196457051815L181.1291666666667,92.83200481923816L183.54583333333335,92.09040249869841L185.9625,98.68682253171198L188.37916666666666,104.21514885017066L190.79583333333335,104.7130161899852L193.2125,107.07137295751029L195.62916666666666,113.77707871280518L198.04583333333332,118.08370177313765L200.4625,118.33771118728457L202.87916666666666,114.89862671237076L205.29583333333332,117.366375634578L207.7125,121.691898500864L210.12916666666666,119.56292170438913L212.54583333333332,123.31877081160721L214.96249999999998,124.9930075486653L217.3791666666667,126.69267706004969L219.79583333333335,126.85000643245205L222.2125,129.30011255753587L224.62916666666666,129.21257642900835L227.04583333333335,126.28943715934041L229.4625,129.5172986592406L231.87916666666666,133.2175788026999L234.29583333333332,131.4729474780422L236.7125,129.11314991216267L239.12916666666666,130.42629014371983L241.54583333333332,128.7168649953228L243.9625,129.46764666276542L246.37916666666666,127.34357020868553L248.79583333333332,129.33879627782142L251.21249999999998,133.02036867578374L253.6291666666667,135.38378444898942L256.04583333333335,137.2266343057573L258.4625,135.57758038703216L260.87916666666666,134.35643953415467L263.29583333333335,134.06142696401199L265.7125,137.41154689107586" style="fill: none;" fill="none"></path></g><g><path stroke="rgb(0, 119, 187)" stroke-width="2px" d="M26.4625,153.70036375912753L28.879166666666666,153.96184087839993L31.29583333333333,154.20607784441097L33.7125,154.50609231684936L36.12916666666667,154.05891955031467L38.54583333333333,154.15152691578098L40.9625,154.33668104929683L43.37916666666667,153.85523116204334L45.795833333333334,153.57158928239357L48.212500000000006,152.97586056570765L50.62916666666667,152.22022947753703L53.045833333333334,150.15600796195315L55.4625,148.34032427735937L57.87916666666667,146.3119869932508L60.295833333333334,146.98918352728734L62.7125,146.64846834590736L65.12916666666666,147.306719602009L67.54583333333333,144.38009817002322L69.96249999999999,140.28133680556974L72.37916666666666,134.20487043435017L74.79583333333333,125.8347386454422L77.21249999999999,103.30563756448922L79.62916666666668,87.4841311044369L82.04583333333333,94.03080019952327L84.4625,89.93904951924182L86.87916666666666,68.43233769388091L89.29583333333333,64.66797979603739L91.71249999999999,62.216276495447595L94.12916666666666,56.51012743116427L96.54583333333333,56.961131889547346L98.9625,61.608462354041286L101.37916666666668,48.69213171560124L103.79583333333333,40.298697596064855L106.2125,24.707000714789135L108.62916666666666,25.54718069012074L111.04583333333333,31.650925087469414L113.46249999999999,28.027211146888117L115.87916666666668,32.997346459783955L118.29583333333333,44.694261661695734L120.7125,32.6479008640821L123.12916666666666,28.393685183893698L125.54583333333333,26.45904904441943L127.96249999999999,19.557030210347712L130.37916666666666,14.32163709280872L132.79583333333335,10.008982255236957L135.2125,12.90517195719356L137.62916666666666,12.081213836572253L140.04583333333332,16.130910120216086L142.4625,26.992364254094134L144.87916666666666,28.8879284290698L147.29583333333335,35.908100940643536L149.7125,38.51111353847042L152.12916666666666,42.57023333083082L154.54583333333335,29.584175576432337L156.9625,37.111086378357044L159.37916666666666,44.58796013223719L161.79583333333332,60.99423062480057L164.2125,76.41188422227235L166.62916666666666,80.38465819893547L169.04583333333332,65.93079491936057L171.4625,73.89004019513577L173.87916666666666,87.09722372423722L176.29583333333332,88.21186190011409L178.71249999999998,92.78108156212105L181.1291666666667,102.16493945351911L183.54583333333335,105.0919814610852L185.9625,106.97693393835212L188.37916666666666,113.68179672664765L190.79583333333335,107.74122427622294L193.2125,109.09426223130549L195.62916666666666,110.20215812447222L198.04583333333332,111.16296681626713L200.4625,105.5862899663583L202.87916666666666,107.99439255447761L205.29583333333332,116.66085391092699L207.7125,123.2767307247966L210.12916666666666,123.6032746020921L212.54583333333332,127.80261891386535L214.96249999999998,123.33233419899393L217.3791666666667,119.85205467200643L219.79583333333335,112.4989422869574L222.2125,108.16431004103099L224.62916666666666,108.65298523892966L227.04583333333335,112.74364490312344L229.4625,117.72109603278315L231.87916666666666,115.89316749626789L234.29583333333332,106.17168310163146L236.7125,105.91268180256269L239.12916666666666,106.25931856529115L241.54583333333332,113.70177295735651L243.9625,114.27968234907655L246.37916666666666,111.09929953284791L248.79583333333332,112.60234257038347L251.21249999999998,118.27995099677554L253.6291666666667,110.35851605261078L256.04583333333335,102.580564177021L258.4625,106.44841162632979L260.87916666666666,97.65995606670697L263.29583333333335,86.45255467251708L265.7125,79.70237073852446" style="fill: none;" fill="none"></path></g></g></g></g><g opacity="0.2"><g><g><g><path stroke="rgb(51, 187, 238)" stroke-width="2px" d="M26.4625,153.7969089681452L28.879166666666666,154.3440001227639L31.29583333333333,152.99236351359974L33.7125,155.0519997544722L36.12916666666667,153.05672739549115L38.54583333333333,154.24745429992677L40.9625,153.53945466821844L43.37916666666667,152.7670911546187L45.795833333333334,154.11872714996338L48.212500000000006,151.1580002455278L50.62916666666667,153.15327260450883L53.045833333333334,151.5119997544722L55.4625,148.16509140014648L57.87916666666667,151.8659998772361L60.295833333333334,149.16272727272727L62.7125,149.03399950894442L65.12916666666666,146.91L67.54583333333333,149.00181818181818L69.96249999999999,143.59527297280053L72.37916666666666,143.78836339083585L74.79583333333333,139.70127223621716L77.21249999999999,132.20291007302023L79.62916666666668,135.16363636363636L82.04583333333333,127.53654643665661L84.4625,113.15127469149503L86.87916666666666,102.08072629061611L89.29583333333333,102.46690712668678L91.71249999999999,104.75181818181818L94.12916666666666,59.08582014604049L96.54583333333333,37.68491105513139L98.9625,18.150543490323155L101.37916666666668,43.47763832785866L103.79583333333333,34.98164029208096L106.2125,20.62854741876776L108.62916666666666,28.35218378240411L111.04583333333333,4.795088944868612L113.46249999999999,5.953636363636372L115.87916666666668,23.042183782404127L118.29583333333333,9.718913019353693L120.7125,20.531996071555398L123.12916666666666,6.565088944868613L125.54583333333333,17.667816217595888L127.96249999999999,23.299634399414057L130.37916666666666,43.25236167214134L132.79583333333335,48.594545454545454L135.2125,19.37345847389915L137.62916666666666,45.279822110262785L140.04583333333332,37.68491105513139L142.4625,29.060177889737222L144.87916666666666,15.962183782404122L147.29583333333335,20.950365600585943L149.7125,12.518725308504965L152.12916666666666,8.785632435191754L154.54583333333335,12.937094837535511L156.9625,26.099456509676845L159.37916666666666,19.08381425337358L161.79583333333332,15.704723344282678L164.2125,43.57417985395953L166.62916666666666,52.19891301935369L169.04583333333332,94.9041798539595L171.4625,64.87854741876775L173.87916666666666,60.30872530850497L176.29583333333332,58.055998035777705L178.71249999999998,58.281274691495035L181.1291666666667,97.4465464366566L183.54583333333335,67.83926879882813L185.9625,76.72145258123226L188.37916666666666,67.83926879882813L190.79583333333335,86.76218378240412L193.2125,90.55963439941407L195.62916666666666,79.61781621759589L198.04583333333332,85.05654643665662L200.4625,99.98890810879794L202.87916666666666,96.80291007302023L205.29583333333332,85.86109189120207L207.7125,99.3130928733132L210.12916666666666,110.44799901788886L212.54583333333332,86.66563734574751L214.96249999999998,86.9874555275657L217.3791666666667,100.82563734574751L219.79583333333335,71.12181818181818L222.2125,48.17618574662642L224.62916666666666,57.154911055131386L227.04583333333335,71.73327076305043L229.4625,77.81563243519176L231.87916666666666,104.65527174516158L234.29583333333332,94.26054349032314L236.7125,95.99836461847478L239.12916666666666,90.62400196422229L241.54583333333332,99.40963439941406L243.9625,90.33436265425249L246.37916666666666,128.01927370938387L248.79583333333332,124.76890810879793L251.21249999999998,120.39218132712624L253.6291666666667,114.98563734574752L256.04583333333335,114.50291007302025L258.4625,114.76036560058594L260.87916666666666,102.78872530850497L263.29583333333335,98.09018280029296L265.7125,101.30836461847478" style="fill: none;" fill="none"></path></g><g><path stroke="rgb(204, 51, 17)" stroke-width="2px" d="M26.4625,153.8612728500366L28.879166666666666,154.98763648640025L31.29583333333333,154.40836339083586L33.7125,154.89109066356312L36.12916666666667,155.63127285003662L38.54583333333333,155.7278180590543L40.9625,156.50018187956377L43.37916666666667,156.82200006138197L45.795833333333334,157.11163630225442L48.212500000000006,157.11163630225442L50.62916666666667,155.9530910318548L53.045833333333334,156.21054533178156L55.4625,155.27727272727273L57.87916666666667,155.7278180590543L60.295833333333334,151.64072751825506L62.7125,150.90054533178156L65.12916666666666,154.15090909090907L67.54583333333333,154.2152729728005L69.96249999999999,154.66581830458207L72.37916666666666,153.31418169541791L74.79583333333333,155.4059998772361L77.21249999999999,156.14618175679988L79.62916666666668,154.60145442269064L82.04583333333333,152.5740001227639L84.4625,152.83145442269065L86.87916666666666,154.44054533178155L89.29583333333333,153.8612728500366L91.71249999999999,155.27727272727273L94.12916666666666,154.24745429992677L96.54583333333333,154.60145442269064L98.9625,154.92327260450884L101.37916666666668,155.27727272727273L103.79583333333333,154.08654520901766L106.2125,154.18309103185481L108.62916666666666,153.8612728500366L111.04583333333333,152.79927248174494L113.46249999999999,150.70745429992675L115.87916666666668,150.03163660916414L118.29583333333333,148.22945405439899L120.7125,150.12818181818182L123.12916666666666,149.13054594560103L125.54583333333333,149.00181818181818L127.96249999999999,144.4319997544722L130.37916666666666,147.7467267816717L132.79583333333335,146.23418230923738L135.2125,144.68945405439896L137.62916666666666,142.85509140014648L140.04583333333332,147.77890933643687L142.4625,146.26636363636365L144.87916666666666,145.3009090909091L147.29583333333335,145.4618181818182L149.7125,144.23890933643688L152.12916666666666,143.40218132712624L154.54583333333335,145.42963685469195L156.9625,143.85272727272726L159.37916666666666,145.8158176907626L161.79583333333332,145.17218132712625L164.2125,146.5881818181818L166.62916666666666,146.97436388189143L169.04583333333332,145.36527297280054L171.4625,144.65727272727273L173.87916666666666,145.8480002455278L176.29583333333332,143.69181818181818L178.71249999999998,145.49399950894443L181.1291666666667,144.33545454545455L183.54583333333335,145.07563611810858L185.9625,142.6941823092374L188.37916666666666,137.44854496348987L190.79583333333335,137.09454545454545L193.2125,135.58200098211114L195.62916666666666,136.67618083607067L198.04583333333332,139.54036314530805L200.4625,138.63927370938387L202.87916666666666,141.0850914001465L205.29583333333332,136.93363636363637L207.7125,135.48545454545453L210.12916666666666,133.20054594560102L212.54583333333332,133.5867267816717L214.96249999999998,121.80818181818182L217.3791666666667,126.05618083607067L219.79583333333335,128.5341823092374L222.2125,122.83799901788885L224.62916666666666,125.89527174516157L227.04583333333335,122.83799901788885L229.4625,127.31127223621716L231.87916666666666,108.19527174516159L234.29583333333332,102.43472825483842L236.7125,110.12618083607067L239.12916666666666,108.42054349032315L241.54583333333332,119.13708992697975L243.9625,97.4465464366566L246.37916666666666,113.18345356334339L248.79583333333332,122.64490859985354L251.21249999999998,116.36945650967685L253.6291666666667,130.59381916392934L256.04583333333335,125.12291007302024L258.4625,120.61745552756568L260.87916666666666,120.23127223621717L263.29583333333335,117.59236167214132L265.7125,113.82708992697975" style="fill: none;" fill="none"></path></g><g><path stroke="rgb(255, 112, 67)" stroke-width="2px" d="M26.4625,153.6038179362904L28.879166666666666,153.37854557730935L31.29583333333333,151.35109066356313L33.7125,154.27963624087246L36.12916666666667,152.4130910318548L38.54583333333333,152.02690896814522L40.9625,155.63127285003662L43.37916666666667,152.86363636363637L45.795833333333334,151.8338179362904L48.212500000000006,153.37854557730935L50.62916666666667,152.12345479098232L53.045833333333334,150.6430910318548L55.4625,151.54418169541793L57.87916666666667,145.39745429992675L60.295833333333334,139.31509140014649L62.7125,123.22418230923739L65.12916666666666,96.0949110551314L67.54583333333333,116.7234535633434L69.96249999999999,130.78690958196466L72.37916666666666,111.73527174516158L74.79583333333333,113.98799901788885L77.21249999999999,107.29417985395952L79.62916666666668,122.00127223621716L82.04583333333333,130.33636363636364L84.4625,138.02781867287376L86.87916666666666,133.07181818181817L89.29583333333333,126.0883646184748L91.71249999999999,113.05472825483841L94.12916666666666,111.86400196422231L96.54583333333333,82.38545454545455L98.9625,110.25491105513139L101.37916666666668,109.54690712668679L103.79583333333333,121.90472825483842L106.2125,118.78309287331322L108.62916666666666,112.0249110551314L111.04583333333333,122.35527174516157L113.46249999999999,131.17309041803534L115.87916666666668,131.49490859985352L118.29583333333333,121.55072629061613L120.7125,88.3069071266868L123.12916666666666,127.72963685469193L125.54583333333333,125.12291007302024L127.96249999999999,110.12618083607067L130.37916666666666,51.61963439941406L132.79583333333335,62.62582014604049L135.2125,115.72582014604048L137.62916666666666,88.11381916392934L140.04583333333332,105.62072629061612L142.4625,110.99508894486861L144.87916666666666,76.27090909090909L147.29583333333335,19.59872530850497L149.7125,42.125998035777705L152.12916666666666,61.531640292080965L154.54583333333335,52.10236167214133L156.9625,75.7559980357777L159.37916666666666,62.23963439941405L161.79583333333332,70.34945650967684L164.2125,73.72854741876775L166.62916666666666,76.85017788973722L169.04583333333332,63.430365600585944L171.4625,74.59745061700994L173.87916666666666,119.78072629061613L176.29583333333332,82.12799901788885L178.71249999999998,93.03763832785866L181.1291666666667,97.80054349032315L183.54583333333335,90.97799901788883L185.9625,108.58145258123226L188.37916666666666,112.50763832785869L190.79583333333335,105.45981719970703L193.2125,110.60890810879793L195.62916666666666,123.83563734574753L198.04583333333332,124.54363636363637L200.4625,118.71872530850496L202.87916666666666,109.74L205.29583333333332,121.06799901788887L207.7125,128.18018280029295L210.12916666666666,116.36945650967685L212.54583333333332,128.9525444724343L214.96249999999998,127.50436265425249L217.3791666666667,129.24218132712622L219.79583333333335,127.08600049105557L222.2125,132.97527174516156L224.62916666666666,129.08127223621716L227.04583333333335,121.90472825483842L229.4625,134.3590909090909L231.87916666666666,138.76799901788883L234.29583333333332,128.85600049105557L236.7125,125.57345356334339L239.12916666666666,132.39600049105556L241.54583333333332,126.15272727272726L243.9625,130.59381916392934L246.37916666666666,124.15745552756569L248.79583333333332,132.3316353815252L251.21249999999998,138.54272727272726L253.6291666666667,138.92890810879794L256.04583333333335,139.9909090909091L258.4625,133.1039995089444L260.87916666666666,132.52472825483844L263.29583333333335,133.61890810879794L265.7125,142.4367267816717" style="fill: none;" fill="none"></path></g><g><path stroke="rgb(0, 119, 187)" stroke-width="2px" d="M26.4625,153.70036375912753L28.879166666666666,154.11872714996338L31.29583333333333,154.44054533178155L33.7125,154.85890933643688L36.12916666666667,153.475090786327L38.54583333333333,154.27963624087246L40.9625,154.60145442269064L43.37916666666667,153.15327260450883L45.795833333333334,153.15327260450883L48.212500000000006,152.09127285003663L50.62916666666667,151.09363636363636L53.045833333333334,147.07090909090908L55.4625,145.62272727272727L57.87916666666667,143.27345479098233L60.295833333333334,148.0041823092374L62.7125,146.13763587258077L65.12916666666666,148.2938179362904L67.54583333333333,139.9909090909091L69.96249999999999,134.13381916392933L72.37916666666666,125.09072629061613L74.79583333333333,113.28L77.21249999999999,69.51272727272728L79.62916666666668,63.752183782404124L82.04583333333333,103.85072629061611L84.4625,83.80145258123224L86.87916666666666,36.172361672141335L89.29583333333333,59.02145258123225L91.71249999999999,58.538725308504965L94.12916666666666,47.950909090909086L96.54583333333333,57.63763832785867L98.9625,68.57945650967685L101.37916666666668,29.317638327858663L103.79583333333333,27.708547418767765L106.2125,1.3194565096768427L108.62916666666666,26.807450617009934L111.04583333333333,40.806541526100844L113.46249999999999,22.591640292080967L115.87916666666668,40.45254938299005L118.29583333333333,62.23963439941405L120.7125,14.578359707919025L123.12916666666666,22.012361672141342L125.54583333333333,23.55709483753552L127.96249999999999,9.204001964222298L130.37916666666666,6.468547418767765L132.79583333333335,3.540000000000003L135.2125,17.249456509676836L137.62916666666666,10.845276655717326L140.04583333333332,22.20545454545455L142.4625,43.28454545454545L144.87916666666666,31.731274691495035L147.29583333333335,46.438359707919034L149.7125,42.41563243519177L152.12916666666666,48.65891301935369L154.54583333333335,10.105088944868616L156.9625,48.40145258123224L159.37916666666666,55.803270763050435L161.79583333333332,85.60363636363637L164.2125,99.53836461847479L166.62916666666666,86.34381916392933L169.04583333333332,44.25L171.4625,85.82890810879793L173.87916666666666,106.90799901788886L176.29583333333332,89.88381916392933L178.71249999999998,99.6349110551314L181.1291666666667,116.24072629061612L183.54583333333335,109.4825444724343L185.9625,109.80436265425249L188.37916666666666,123.7390909090909L190.79583333333335,98.83036560058594L193.2125,111.12381916392933L195.62916666666666,111.86400196422231L198.04583333333332,112.60417985395952L200.4625,97.22127469149504L202.87916666666666,111.60654643665661L205.29583333333332,129.66054594560103L207.7125,133.20054594560102L210.12916666666666,124.09309041803533L212.54583333333332,134.1016353815252L214.96249999999998,116.6269071266868L217.3791666666667,114.63163538152523L219.79583333333335,101.46927370938387L222.2125,101.66236167214133L224.62916666666666,109.38599803577769L227.04583333333335,118.87963439941406L229.4625,125.18727272727273L231.87916666666666,113.15127469149503L234.29583333333332,91.58945650967685L236.7125,105.52417985395952L239.12916666666666,106.77927370938387L241.54583333333332,124.86545454545454L243.9625,115.14654643665662L246.37916666666666,106.32872530850497L248.79583333333332,114.85690712668679L251.21249999999998,126.79636363636362L253.6291666666667,98.47636363636364L256.04583333333335,90.91363636363637L258.4625,112.25018280029299L260.87916666666666,84.47727272727273L263.29583333333335,69.64145258123224L265.7125,69.5770948375355" style="fill: none;" fill="none"></path></g></g></g></g></g></g><g transform="translate(40, 177)" clip-path="url(#clip_1)"><clipPath id="clip_1"><rect width="290" height="23"></rect></clipPath><g><g><line x1="0" y1="0" x2="0" y2="5" style="visibility: inherit;" fill="rgb(0, 0, 0)" stroke="rgb(204, 204, 204)" stroke-width="1px"></line><line x1="24.166666666666664" y1="0" x2="24.166666666666664" y2="5" style="visibility: inherit;" fill="rgb(0, 0, 0)" stroke="rgb(204, 204, 204)" stroke-width="1px"></line><line x1="48.33333333333333" y1="0" x2="48.33333333333333" y2="5" style="visibility: inherit;" fill="rgb(0, 0, 0)" stroke="rgb(204, 204, 204)" stroke-width="1px"></line><line x1="72.5" y1="0" x2="72.5" y2="5" style="visibility: inherit;" fill="rgb(0, 0, 0)" stroke="rgb(204, 204, 204)" stroke-width="1px"></line><line x1="96.66666666666666" y1="0" x2="96.66666666666666" y2="5" style="visibility: inherit;" fill="rgb(0, 0, 0)" stroke="rgb(204, 204, 204)" stroke-width="1px"></line><line x1="120.83333333333334" y1="0" x2="120.83333333333334" y2="5" style="visibility: inherit;" fill="rgb(0, 0, 0)" stroke="rgb(204, 204, 204)" stroke-width="1px"></line><line x1="145" y1="0" x2="145" y2="5" style="visibility: inherit;" fill="rgb(0, 0, 0)" stroke="rgb(204, 204, 204)" stroke-width="1px"></line><line x1="169.16666666666669" y1="0" x2="169.16666666666669" y2="5" style="visibility: inherit;" fill="rgb(0, 0, 0)" stroke="rgb(204, 204, 204)" stroke-width="1px"></line><line x1="193.33333333333331" y1="0" x2="193.33333333333331" y2="5" style="visibility: inherit;" fill="rgb(0, 0, 0)" stroke="rgb(204, 204, 204)" stroke-width="1px"></line><line x1="217.5" y1="0" x2="217.5" y2="5" style="visibility: inherit;" fill="rgb(0, 0, 0)" stroke="rgb(204, 204, 204)" stroke-width="1px"></line><line x1="241.66666666666669" y1="0" x2="241.66666666666669" y2="5" style="visibility: inherit;" fill="rgb(0, 0, 0)" stroke="rgb(204, 204, 204)" stroke-width="1px"></line><line x1="265.8333333333333" y1="0" x2="265.8333333333333" y2="5" style="visibility: inherit;" fill="rgb(0, 0, 0)" stroke="rgb(204, 204, 204)" stroke-width="1px"></line><line x1="290" y1="0" x2="290" y2="5" style="visibility: inherit;" fill="rgb(0, 0, 0)" stroke="rgb(204, 204, 204)" stroke-width="1px"></line></g><g transform="translate(0, 8)"><text x="0" y="0" dx="0em" dy="0.95em" style="text-anchor: middle; visibility: hidden; font-family: Roboto, sans-serif; font-size: 12px; font-weight: 200;" fill="rgb(33, 33, 33)" stroke="none" stroke-width="1px">-200</text><text x="24.166666666666664" y="0" dx="0em" dy="0.95em" style="text-anchor: middle; visibility: inherit; font-family: Roboto, sans-serif; font-size: 12px; font-weight: 200;" fill="rgb(33, 33, 33)" stroke="none" stroke-width="1px">0</text><text x="48.33333333333333" y="0" dx="0em" dy="0.95em" style="text-anchor: middle; visibility: hidden; font-family: Roboto, sans-serif; font-size: 12px; font-weight: 200;" fill="rgb(33, 33, 33)" stroke="none" stroke-width="1px">200</text><text x="72.5" y="0" dx="0em" dy="0.95em" style="text-anchor: middle; visibility: inherit; font-family: Roboto, sans-serif; font-size: 12px; font-weight: 200;" fill="rgb(33, 33, 33)" stroke="none" stroke-width="1px">400</text><text x="96.66666666666666" y="0" dx="0em" dy="0.95em" style="text-anchor: middle; visibility: hidden; font-family: Roboto, sans-serif; font-size: 12px; font-weight: 200;" fill="rgb(33, 33, 33)" stroke="none" stroke-width="1px">600</text><text x="120.83333333333334" y="0" dx="0em" dy="0.95em" style="text-anchor: middle; visibility: inherit; font-family: Roboto, sans-serif; font-size: 12px; font-weight: 200;" fill="rgb(33, 33, 33)" stroke="none" stroke-width="1px">800</text><text x="145" y="0" dx="0em" dy="0.95em" style="text-anchor: middle; visibility: hidden; font-family: Roboto, sans-serif; font-size: 12px; font-weight: 200;" fill="rgb(33, 33, 33)" stroke="none" stroke-width="1px">1k</text><text x="169.16666666666669" y="0" dx="0em" dy="0.95em" style="text-anchor: middle; visibility: inherit; font-family: Roboto, sans-serif; font-size: 12px; font-weight: 200;" fill="rgb(33, 33, 33)" stroke="none" stroke-width="1px">1.2k</text><text x="193.33333333333331" y="0" dx="0em" dy="0.95em" style="text-anchor: middle; visibility: hidden; font-family: Roboto, sans-serif; font-size: 12px; font-weight: 200;" fill="rgb(33, 33, 33)" stroke="none" stroke-width="1px">1.4k</text><text x="217.5" y="0" dx="0em" dy="0.95em" style="text-anchor: middle; visibility: inherit; font-family: Roboto, sans-serif; font-size: 12px; font-weight: 200;" fill="rgb(33, 33, 33)" stroke="none" stroke-width="1px">1.6k</text><text x="241.66666666666669" y="0" dx="0em" dy="0.95em" style="text-anchor: middle; visibility: hidden; font-family: Roboto, sans-serif; font-size: 12px; font-weight: 200;" fill="rgb(33, 33, 33)" stroke="none" stroke-width="1px">1.8k</text><text x="265.8333333333333" y="0" dx="0em" dy="0.95em" style="text-anchor: middle; visibility: inherit; font-family: Roboto, sans-serif; font-size: 12px; font-weight: 200;" fill="rgb(33, 33, 33)" stroke="none" stroke-width="1px">2k</text><text x="290" y="0" dx="0em" dy="0.95em" style="text-anchor: middle; visibility: hidden; font-family: Roboto, sans-serif; font-size: 12px; font-weight: 200;" fill="rgb(33, 33, 33)" stroke="none" stroke-width="1px">2.2k</text></g><line x1="0" y1="0" x2="290" y2="0" fill="rgb(0, 0, 0)" stroke="rgb(204, 204, 204)" stroke-width="1px"></line></g></g></g></g></svg>