<svg viewBox="0 0 330 200" xmlns="http://www.w3.org/2000/svg"><g><g><g><g><g><line x1="50" y1="177" x2="45" y2="177" style="visibility: inherit;" fill="rgb(0, 0, 0)" stroke="rgb(204, 204, 204)" stroke-width="1px"></line><line x1="50" y1="162.25" x2="45" y2="162.25" style="visibility: inherit;" fill="rgb(0, 0, 0)" stroke="rgb(204, 204, 204)" stroke-width="1px"></line><line x1="50" y1="147.5" x2="45" y2="147.5" style="visibility: inherit;" fill="rgb(0, 0, 0)" stroke="rgb(204, 204, 204)" stroke-width="1px"></line><line x1="50" y1="132.75" x2="45" y2="132.75" style="visibility: inherit;" fill="rgb(0, 0, 0)" stroke="rgb(204, 204, 204)" stroke-width="1px"></line><line x1="50" y1="118.00000000000001" x2="45" y2="118.00000000000001" style="visibility: inherit;" fill="rgb(0, 0, 0)" stroke="rgb(204, 204, 204)" stroke-width="1px"></line><line x1="50" y1="103.24999999999999" x2="45" y2="103.24999999999999" style="visibility: inherit;" fill="rgb(0, 0, 0)" stroke="rgb(204, 204, 204)" stroke-width="1px"></line><line x1="50" y1="88.5" x2="45" y2="88.5" style="visibility: inherit;" fill="rgb(0, 0, 0)" stroke="rgb(204, 204, 204)" stroke-width="1px"></line><line x1="50" y1="73.75" x2="45" y2="73.75" style="visibility: inherit;" fill="rgb(0, 0, 0)" stroke="rgb(204, 204, 204)" stroke-width="1px"></line><line x1="50" y1="59.00000000000001" x2="45" y2="59.00000000000001" style="visibility: inherit;" fill="rgb(0, 0, 0)" stroke="rgb(204, 204, 204)" stroke-width="1px"></line><line x1="50" y1="44.25" x2="45" y2="44.25" style="visibility: inherit;" fill="rgb(0, 0, 0)" stroke="rgb(204, 204, 204)" stroke-width="1px"></line><line x1="50" y1="29.499999999999993" x2="45" y2="29.499999999999993" style="visibility: inherit;" fill="rgb(0, 0, 0)" stroke="rgb(204, 204, 204)" stroke-width="1px"></line><line x1="50" y1="14.750000000000007" x2="45" y2="14.750000000000007" style="visibility: inherit;" fill="rgb(0, 0, 0)" stroke="rgb(204, 204, 204)" stroke-width="1px"></line><line x1="50" y1="0" x2="45" y2="0" style="visibility: inherit;" fill="rgb(0, 0, 0)" stroke="rgb(204, 204, 204)" stroke-width="1px"></line></g><g transform="translate(40, 0)"><text x="0" y="177" dx="0em" dy="0.3em" style="text-anchor: end; visibility: hidden; font-family: Roboto, sans-serif; font-size: 12px; font-weight: 200;" fill="rgb(33, 33, 33)" stroke="none" stroke-width="1px">-210</text><text x="0" y="162.25" dx="0em" dy="0.3em" style="text-anchor: end; visibility: inherit; font-family: Roboto, sans-serif; font-size: 12px; font-weight: 200;" fill="rgb(33, 33, 33)" stroke="none" stroke-width="1px">-200</text><text x="0" y="147.5" dx="0em" dy="0.3em" style="text-anchor: end; visibility: hidden; font-family: Roboto, sans-serif; font-size: 12px; font-weight: 200;" fill="rgb(33, 33, 33)" stroke="none" stroke-width="1px">-190</text><text x="0" y="132.75" dx="0em" dy="0.3em" style="text-anchor: end; visibility: inherit; font-family: Roboto, sans-serif; font-size: 12px; font-weight: 200;" fill="rgb(33, 33, 33)" stroke="none" stroke-width="1px">-180</text><text x="0" y="118.00000000000001" dx="0em" dy="0.3em" style="text-anchor: end; visibility: hidden; font-family: Roboto, sans-serif; font-size: 12px; font-weight: 200;" fill="rgb(33, 33, 33)" stroke="none" stroke-width="1px">-170</text><text x="0" y="103.24999999999999" dx="0em" dy="0.3em" style="text-anchor: end; visibility: inherit; font-family: Roboto, sans-serif; font-size: 12px; font-weight: 200;" fill="rgb(33, 33, 33)" stroke="none" stroke-width="1px">-160</text><text x="0" y="88.5" dx="0em" dy="0.3em" style="text-anchor: end; visibility: hidden; font-family: Roboto, sans-serif; font-size: 12px; font-weight: 200;" fill="rgb(33, 33, 33)" stroke="none" stroke-width="1px">-150</text><text x="0" y="73.75" dx="0em" dy="0.3em" style="text-anchor: end; visibility: inherit; font-family: Roboto, sans-serif; font-size: 12px; font-weight: 200;" fill="rgb(33, 33, 33)" stroke="none" stroke-width="1px">-140</text><text x="0" y="59.00000000000001" dx="0em" dy="0.3em" style="text-anchor: end; visibility: hidden; font-family: Roboto, sans-serif; font-size: 12px; font-weight: 200;" fill="rgb(33, 33, 33)" stroke="none" stroke-width="1px">-130</text><text x="0" y="44.25" dx="0em" dy="0.3em" style="text-anchor: end; visibility: inherit; font-family: Roboto, sans-serif; font-size: 12px; font-weight: 200;" fill="rgb(33, 33, 33)" stroke="none" stroke-width="1px">-120</text><text x="0" y="29.499999999999993" dx="0em" dy="0.3em" style="text-anchor: end; visibility: hidden; font-family: Roboto, sans-serif; font-size: 12px; font-weight: 200;" fill="rgb(33, 33, 33)" stroke="none" stroke-width="1px">-110</text><text x="0" y="14.750000000000007" dx="0em" dy="0.3em" style="text-anchor: end; visibility: inherit; font-family: Roboto, sans-serif; font-size: 12px; font-weight: 200;" fill="rgb(33, 33, 33)" stroke="none" stroke-width="1px">-100</text><text x="0" y="0" dx="0em" dy="0.3em" style="text-anchor: end; visibility: hidden; font-family: Roboto, sans-serif; font-size: 12px; font-weight: 200;" fill="rgb(33, 33, 33)" stroke="none" stroke-width="1px">-90</text></g><line x1="50" y1="0" x2="50" y2="177" fill="rgb(0, 0, 0)" stroke="rgb(204, 204, 204)" stroke-width="1px"></line></g></g><g transform="translate(50, 0)" clip-path="url(#clip_0)"><clipPath id="clip_0"><rect width="280" height="177"></rect></clipPath><g><g><g><line x1="0" y1="0" x2="0" y2="177" fill="rgb(0, 0, 0)" stroke="rgb(66, 66, 66)" stroke-width="1px" opacity="0.25"></line><line x1="23.333333333333332" y1="0" x2="23.333333333333332" y2="177" fill="rgb(0, 0, 0)" stroke="rgb(66, 66, 66)" stroke-width="1px" opacity="0.25"></line><line x1="46.666666666666664" y1="0" x2="46.666666666666664" y2="177" fill="rgb(0, 0, 0)" stroke="rgb(66, 66, 66)" stroke-width="1px" opacity="0.25"></line><line x1="70" y1="0" x2="70" y2="177" fill="rgb(0, 0, 0)" stroke="rgb(66, 66, 66)" stroke-width="1px" opacity="0.25"></line><line x1="93.33333333333333" y1="0" x2="93.33333333333333" y2="177" fill="rgb(0, 0, 0)" stroke="rgb(66, 66, 66)" stroke-width="1px" opacity="0.25"></line><line x1="116.66666666666667" y1="0" x2="116.66666666666667" y2="177" fill="rgb(0, 0, 0)" stroke="rgb(66, 66, 66)" stroke-width="1px" opacity="0.25"></line><line x1="140" y1="0" x2="140" y2="177" fill="rgb(0, 0, 0)" stroke="rgb(66, 66, 66)" stroke-width="1px" opacity="0.25"></line><line x1="163.33333333333334" y1="0" x2="163.33333333333334" y2="177" fill="rgb(0, 0, 0)" stroke="rgb(66, 66, 66)" stroke-width="1px" opacity="0.25"></line><line x1="186.66666666666666" y1="0" x2="186.66666666666666" y2="177" fill="rgb(0, 0, 0)" stroke="rgb(66, 66, 66)" stroke-width="1px" opacity="0.25"></line><line x1="210" y1="0" x2="210" y2="177" fill="rgb(0, 0, 0)" stroke="rgb(66, 66, 66)" stroke-width="1px" opacity="0.25"></line><line x1="233.33333333333334" y1="0" x2="233.33333333333334" y2="177" fill="rgb(0, 0, 0)" stroke="rgb(66, 66, 66)" stroke-width="1px" opacity="0.25"></line><line x1="256.66666666666663" y1="0" x2="256.66666666666663" y2="177" fill="rgb(0, 0, 0)" stroke="rgb(66, 66, 66)" stroke-width="1px" opacity="0.25"></line><line x1="280" y1="0" x2="280" y2="177" fill="rgb(0, 0, 0)" stroke="rgb(66, 66, 66)" stroke-width="1px" opacity="0.25"></line></g><g><line x1="0" y1="177" x2="280" y2="177" fill="rgb(0, 0, 0)" stroke="rgb(66, 66, 66)" stroke-width="1px" opacity="0.25"></line><line x1="0" y1="162.25" x2="280" y2="162.25" fill="rgb(0, 0, 0)" stroke="rgb(66, 66, 66)" stroke-width="1px" opacity="0.25"></line><line x1="0" y1="147.5" x2="280" y2="147.5" fill="rgb(0, 0, 0)" stroke="rgb(66, 66, 66)" stroke-width="1px" opacity="0.25"></line><line x1="0" y1="132.75" x2="280" y2="132.75" fill="rgb(0, 0, 0)" stroke="rgb(66, 66, 66)" stroke-width="1px" opacity="0.25"></line><line x1="0" y1="118.00000000000001" x2="280" y2="118.00000000000001" fill="rgb(0, 0, 0)" stroke="rgb(66, 66, 66)" stroke-width="1px" opacity="0.25"></line><line x1="0" y1="103.24999999999999" x2="280" y2="103.24999999999999" fill="rgb(0, 0, 0)" stroke="rgb(66, 66, 66)" stroke-width="1px" opacity="0.25"></line><line x1="0" y1="88.5" x2="280" y2="88.5" fill="rgb(0, 0, 0)" stroke="rgb(66, 66, 66)" stroke-width="1px" opacity="0.25"></line><line x1="0" y1="73.75" x2="280" y2="73.75" fill="rgb(0, 0, 0)" stroke="rgb(66, 66, 66)" stroke-width="1px" opacity="0.25"></line><line x1="0" y1="59.00000000000001" x2="280" y2="59.00000000000001" fill="rgb(0, 0, 0)" stroke="rgb(66, 66, 66)" stroke-width="1px" opacity="0.25"></line><line x1="0" y1="44.25" x2="280" y2="44.25" fill="rgb(0, 0, 0)" stroke="rgb(66, 66, 66)" stroke-width="1px" opacity="0.25"></line><line x1="0" y1="29.499999999999993" x2="280" y2="29.499999999999993" fill="rgb(0, 0, 0)" stroke="rgb(66, 66, 66)" stroke-width="1px" opacity="0.25"></line><line x1="0" y1="14.750000000000007" x2="280" y2="14.750000000000007" fill="rgb(0, 0, 0)" stroke="rgb(66, 66, 66)" stroke-width="1px" opacity="0.25"></line><line x1="0" y1="0" x2="280" y2="0" fill="rgb(0, 0, 0)" stroke="rgb(66, 66, 66)" stroke-width="1px" opacity="0.25"></line></g></g></g><g><g><line x1="0" y1="-132.75" x2="280" y2="-132.75" fill="rgb(0, 0, 0)" stroke="rgb(153, 153, 153)" stroke-width="1.5px"></line></g></g><g><g><line x1="23.333333333333332" y1="0" x2="23.333333333333332" y2="177" fill="rgb(0, 0, 0)" stroke="rgb(153, 153, 153)" stroke-width="1.5px"></line></g></g><g><g><g><g><g><path stroke="rgb(238, 51, 119)" stroke-width="2px" d="M25.55,162.25L27.883333333333333,162.25L30.216666666666665,162.25L32.550000000000004,162.24999999999994L34.88333333333333,162.24999999999994L37.21666666666666,162.24999999999994L39.55,162.24999999999994L41.88333333333334,162.24999999999994L44.21666666666667,162.24999999999994L46.550000000000004,162.24999999999994L48.88333333333333,162.24999999999994L51.21666666666667,161.00829347409373L53.550000000000004,161.5056256347737L55.88333333333333,155.78089104099013L58.21666666666667,146.8003084884509L60.55,150.50323152889524L62.88333333333333,155.1437207960778L65.21666666666667,153.67908192844965L67.55,149.02416730585048L69.88333333333333,138.20710309396705L72.21666666666667,134.78518318881794L74.55,129.36903682451242L76.88333333333334,121.8713628833103L79.21666666666667,114.48178631642871L81.55,104.73804768920189L83.88333333333333,96.59081291529014L86.21666666666667,92.5874818512662L88.55,87.23548402359168L90.88333333333334,81.7232901836883L93.21666666666667,72.57496848668345L95.55,69.91797893903828L97.88333333333334,67.67479078596946L100.21666666666667,69.16087094147069L102.55000000000001,76.48352457522215L104.88333333333333,70.72911824728523L107.21666666666667,70.6394727479836L109.55,70.46768724880128L111.88333333333334,66.41160873314558L114.21666666666667,61.853967030270404L116.55,51.862380204805994L118.88333333333333,50.115426320945346L121.21666666666667,48.3592557917221L123.55,47.48255527531724L125.88333333333334,56.396534967271734L128.21666666666667,55.25492278078149L130.55,57.40195726967699L132.88333333333333,54.442175261964L135.21666666666667,56.73730695776702L137.55,57.8193859752119L139.88333333333333,51.68363338561467L142.21666666666667,59.44817823086931L144.54999999999998,71.18690513801864L146.88333333333333,72.74313948173969L149.21666666666667,67.30488729011232L151.55,75.72392877299845L153.88333333333333,87.4423554632664L156.21666666666664,100.01941687903687L158.55,111.22365192796076L160.88333333333333,122.78419115677738L163.21666666666667,137.50851289353L165.55,142.6851077361182L167.88333333333333,132.1030664422078L170.21666666666667,110.70884166586154L172.54999999999998,88.55030499951675L174.88333333333335,77.2611793986358L177.21666666666667,69.54370943971854L179.54999999999998,55.29622566383109L181.88333333333333,53.94573359776154L184.21666666666667,52.60444195919403L186.55,59.41066337497935L188.88333333333333,63.14040162606183L191.21666666666664,56.05624277617421L193.55,55.34574746624162L195.88333333333333,57.04344487867075L198.21666666666667,55.52506602693389L200.55,51.31003961616033L202.88333333333333,51.73102376969621L205.21666666666667,42.543614261817744L207.54999999999998,41.75116855709064L209.88333333333335,44.22570113425438L212.21666666666667,35.26742248108975L214.54999999999998,34.08145438892242L216.88333333333333,41.39387263335346L219.21666666666667,40.471323580012076L221.55,43.57579234747014L223.88333333333333,43.84547540848208L226.21666666666664,39.11028344455215L228.55,37.74416826619418L230.88333333333333,43.591500959716505L233.21666666666667,51.05289877529278L235.55,60.36773566410144L237.88333333333333,83.42064139846083L240.21666666666667,94.95138844015071L242.54999999999998,99.80483666516464L244.88333333333335,90.62190560017301L247.21666666666667,97.0301451606409L249.54999999999998,104.47408349531028L251.88333333333333,109.4124482966491L254.21666666666667,103.82046717745236L256.55,97.81027850593432" style="fill: none;" fill="none"></path></g><g><path stroke="rgb(255, 112, 67)" stroke-width="2px" d="M25.55,162.25L27.883333333333333,162.25L30.216666666666665,162.25L32.550000000000004,162.24999999999994L34.88333333333333,162.24999999999994L37.21666666666666,162.24999999999994L39.55,162.24999999999994L41.88333333333334,162.24999999999994L44.21666666666667,162.24999999999994L46.550000000000004,162.24999999999994L48.88333333333333,162.24999999999994L51.21666666666667,162.25000000000006L53.550000000000004,162.19091923534685L55.88333333333333,162.2145700749909L58.21666666666667,162.22874871157651L60.55,162.23725162571145L62.88333333333333,162.24235183872256L65.21666666666667,162.24541141396384L67.55,162.2472469602291L69.88333333333333,162.24834821640115L72.21666666666667,162.24900894433503L74.55,162.24940537181888L76.88333333333334,161.0106298390323L79.21666666666667,158.91037155266892L81.55,160.24622672947612L83.88333333333333,160.04473749451898L86.21666666666667,158.62584464556244L88.55,157.6565025909959L90.88333333333334,153.47590181476494L93.21666666666667,152.38353904682893L95.55,147.95212464083238L97.88333333333334,136.20727024869208L100.21666666666667,124.85336520811818L102.55000000000001,116.09402067444245L104.88333333333333,103.1684139830022L107.21666666666667,85.97305001297815L109.55,76.95382995197005L111.88333333333334,75.79029616632454L114.21666666666667,74.44318129786767L116.55,79.23991238620683L118.88333333333333,84.30094923632039L121.21666666666667,76.59957313916031L123.55,72.33274208172709L125.88333333333334,81.80864885175211L128.21666666666667,80.76818751040598L130.55,81.85491610738555L132.88333333333333,75.78094786366694L135.21666666666667,73.02156691760109L137.55,66.11494195100475L139.88333333333333,68.46096697115895L142.21666666666667,56.00358198317205L144.54999999999998,61.33214918991873L146.88333333333333,56.44629131447988L149.21666666666667,54.45877568895437L151.55,68.31126181230708L153.88333333333333,65.9437588879205L156.21666666666664,69.00725173167875L158.55,65.4763528395439L160.88333333333333,66.83880990318937L163.21666666666667,59.868285941913236L165.55,54.56497066487923L167.88333333333333,53.56598419946463L170.21666666666667,70.25359412075315L172.54999999999998,63.86415827298898L174.88333333333335,54.36649316325625L177.21666666666667,57.57689769849092L179.54999999999998,47.52613861909449L181.88333333333333,43.501684071725265L184.21666666666667,71.35400864249806L186.55,75.38040338496177L188.88333333333333,73.37124023043995L191.21666666666664,64.49574233772688L193.55,69.61344180156192L195.88333333333333,69.02606328040001L198.21666666666667,65.19263976877714L200.55,55.22258566180339L202.88333333333333,54.43255049681351L205.21666666666667,54.13553119835666L207.54999999999998,55.84532232008821L209.88333333333335,71.09019159151582L212.21666666666667,73.4521131543724L214.54999999999998,72.50926609208635L216.88333333333333,73.35956325632603L219.21666666666667,76.17073795379562L221.55,70.24644637335157L223.88333333333333,66.04286782401097L226.21666666666664,62.930720694406574L228.55,64.78043421718104L230.88333333333333,54.031258729771515L233.21666666666667,46.46075703840001L235.55,45.34045332277146L237.88333333333333,54.75727019312576L240.21666666666667,55.33336571694968L242.54999999999998,47.360019430169785L244.88333333333335,53.90400985756476L247.21666666666667,42.49040411400175L249.54999999999998,39.182240667863944L251.88333333333333,68.34934440071834L254.21666666666667,69.15260483989388L256.55,72.58456110339925" style="fill: none;" fill="none"></path></g><g><path stroke="rgb(204, 51, 17)" stroke-width="2px" d="M25.55,162.25L27.883333333333333,162.25L30.216666666666665,162.25L32.550000000000004,162.24999999999994L34.88333333333333,162.24999999999994L37.21666666666666,162.24999999999994L39.55,162.24999999999994L41.88333333333334,162.24999999999994L44.21666666666667,162.24999999999994L46.550000000000004,162.24999999999994L48.88333333333333,162.24999999999994L51.21666666666667,162.25000000000006L53.550000000000004,161.8364616908051L55.88333333333333,147.12234822299695L58.21666666666667,141.25265089078565L60.55,137.0834125459742L62.88333333333333,128.62261899894872L65.21666666666667,129.09361923413266L67.55,123.8888525824171L69.88333333333333,110.73582885352602L72.21666666666667,103.78834670607979L74.55,96.43390762219337L76.88333333333334,89.89729475224573L79.21666666666667,87.74536845523716L81.55,77.07318713074919L83.88333333333333,79.40191445029568L86.21666666666667,77.84914528039602L88.55,78.74648951982859L90.88333333333334,75.1548941890875L93.21666666666667,62.615931940877864L95.55,64.82755765734926L97.88333333333334,55.88853568352019L100.21666666666667,46.395122757320095L102.55000000000001,44.534075401607936L104.88333333333333,33.80044505644607L107.21666666666667,32.25726881848779L109.55,27.791363063991835L111.88333333333334,26.29181963336412L114.21666666666667,27.45709358315171L116.55,24.734256146251276L118.88333333333333,24.457555488065918L121.21666666666667,21.695534191778965L123.55,22.339322315790376L125.88333333333334,22.371591588942696L128.21666666666667,23.15795495344734L130.55,27.346774772866773L132.88333333333333,28.680066664307034L135.21666666666667,31.84004179919229L137.55,31.3760268800462L139.88333333333333,33.752617928584066L142.21666666666667,34.293572557690176L144.54999999999998,33.379141734074345L146.88333333333333,29.939486840975714L149.21666666666667,32.83169030405132L151.55,34.50801328216329L153.88333333333333,30.144807969296345L156.21666666666664,25.81588388130828L158.55,26.28653212932214L160.88333333333333,24.857920177861725L163.21666666666667,22.466753907254027L165.55,22.625052344352422L167.88333333333333,21.48103230687998L170.21666666666667,20.1456211846651L172.54999999999998,21.055370910261956L174.88333333333335,20.06722164588864L177.21666666666667,21.067334788070287L179.54999999999998,18.54040087284217L181.88333333333333,21.980241423973848L184.21666666666667,25.40114305384719L186.55,27.80768763284547L188.88333333333333,26.242610779170185L191.21666666666664,26.54256826803921L193.55,24.067542761360638L195.88333333333333,24.942527457353485L198.21666666666667,21.160516474412074L200.55,19.00930808411014L202.88333333333333,18.01358304992897L205.21666666666667,19.06814982995738L207.54999999999998,19.759888997705875L209.88333333333335,24.068931598086408L212.21666666666667,25.23836075938897L214.54999999999998,24.052015555364836L216.88333333333333,21.629207532681765L219.21666666666667,19.88052271907195L221.55,28.50731273117461L223.88333333333333,30.969387638704777L226.21666666666664,31.56163258322287L228.55,34.27697954993372L230.88333333333333,29.416187729960235L233.21666666666667,25.378711737707594L235.55,26.437227042624563L237.88333333333333,27.662336225574734L240.21666666666667,27.512401735344852L242.54999999999998,29.605439240669778L244.88333333333335,23.014264444670427L247.21666666666667,22.127557766533695L249.54999999999998,21.123536460457323L251.88333333333333,19.164121876274386L254.21666666666667,20.23047492630175L256.55,20.221283155243935" style="fill: none;" fill="none"></path></g><g><path stroke="rgb(0, 119, 187)" stroke-width="2px" d="M25.55,162.25L27.883333333333333,162.25L30.216666666666665,162.25L32.550000000000004,162.24999999999994L34.88333333333333,162.24999999999994L37.21666666666666,162.24999999999994L39.55,162.24999999999994L41.88333333333334,162.24999999999994L44.21666666666667,162.24999999999994L46.550000000000004,162.24999999999994L48.88333333333333,161.53942385118856L51.21666666666667,158.69045091621553L53.550000000000004,153.26317855428906L55.88333333333333,152.0779747564502L58.21666666666667,147.4716208159507L60.55,138.57145805476185L62.88333333333333,136.9505986749727L65.21666666666667,125.41618957143197L67.55,114.4250403854039L69.88333333333333,107.18176120601642L72.21666666666667,102.0689445640035L74.55,91.1542212764174L76.88333333333334,87.0245019527459L79.21666666666667,80.41667166176494L81.55,84.53501470562686L83.88333333333333,82.34500868870019L86.21666666666667,75.30799440982953L88.55,72.26579117662406L90.88333333333334,69.26046999757003L93.21666666666667,65.03828286566365L95.55,69.05396665098174L97.88333333333334,62.7903776915541L100.21666666666667,62.98522302316249L102.55000000000001,54.42913176821828L104.88333333333333,52.599480830015096L107.21666666666667,55.985684931861584L109.55,71.41041465564955L111.88333333333334,75.3552524091119L114.21666666666667,75.77515324693977L116.55,71.72009194274325L118.88333333333333,77.90105877167758L121.21666666666667,75.59163166082094L123.55,75.0909753952738L125.88333333333334,74.08258343645248L128.21666666666667,69.22955006136702L130.55,71.50973183749953L132.88333333333333,73.99883730205575L135.21666666666667,71.00830598224053L137.55,76.64798178888317L139.88333333333333,87.22978547234125L142.21666666666667,86.02687488447313L144.54999999999998,94.8631267312467L146.88333333333333,104.82587423822831L149.21666666666667,100.12452814400629L151.55,92.17071328532455L153.88333333333333,91.41042617065736L156.21666666666664,93.37325750293193L158.55,88.65095630229567L160.88333333333333,91.30457738245185L163.21666666666667,88.94374282839674L165.55,92.48324749757525L167.88333333333333,91.53895209961935L170.21666666666667,85.6623748608458L172.54999999999998,75.6464285175816L174.88333333333335,66.03785711054893L177.21666666666667,64.52071246579226L179.54999999999998,66.26542567893821L181.88333333333333,57.04625720790003L184.21666666666667,53.579756125277115L186.55,48.78585187462918L188.88333333333333,45.49651112477751L191.21666666666664,42.63790667486651L193.55,47.176743104651344L195.88333333333333,54.44304766332789L198.21666666666667,65.94182499692252L200.55,90.71809319761641L202.88333333333333,97.73685231749562L205.21666666666667,84.77911319103445L207.54999999999998,84.9694697151578L209.88333333333335,88.85968002855756L212.21666666666667,94.26180441606031L214.54999999999998,89.83307904856196L216.88333333333333,80.27284562860007L219.21666666666667,61.55670557662293L221.55,48.43902334597375L223.88333333333333,50.480415808121364L226.21666666666664,65.21624768433571L228.55,83.85175041113857L230.88333333333333,105.06305204722025L233.21666666666667,86.04783122833214L235.55,59.4757005375364L237.88333333333333,44.65341852198474L240.21666666666667,32.7510502129223L242.54999999999998,25.84563012775338L244.88333333333335,21.99737807665204L247.21666666666667,20.80942774625976L249.54999999999998,18.975656647755873L251.88333333333333,19.52739578919064L254.21666666666667,18.088439274051492L256.55,17.3430635644309" style="fill: none;" fill="none"></path></g></g></g></g><g opacity="0.2"><g><g><g><path stroke="rgb(238, 51, 119)" stroke-width="2px" d="M25.55,162.25L27.883333333333333,162.25L30.216666666666665,162.25L32.550000000000004,162.25L34.88333333333333,162.25L37.21666666666666,162.25L39.55,162.25L41.88333333333334,162.25L44.21666666666667,162.25L46.550000000000004,162.25L48.88333333333333,162.25L51.21666666666667,159.15249099731446L53.550000000000004,162.25L55.88333333333333,147.20500450134278L58.21666666666667,133.33999099731446L60.55,156.05500450134278L62.88333333333333,162.10249099731445L65.21666666666667,151.48249549865722L67.55,142.04250450134276L69.88333333333333,121.98249549865723L72.21666666666667,129.65249099731446L74.55,121.24499549865723L76.88333333333334,110.625L79.21666666666667,103.39750900268554L81.55,90.12250900268555L83.88333333333333,84.36999549865722L86.21666666666667,86.58249549865722L88.55,79.20749549865722L90.88333333333334,73.45500450134277L93.21666666666667,58.852490997314455L95.55,65.93249549865723L97.88333333333334,64.31000900268555L100.21666666666667,71.38999099731446L102.55000000000001,87.46750450134277L104.88333333333333,62.09750900268555L107.21666666666667,70.50500450134278L109.55,70.21000900268554L111.88333333333334,60.32749099731445L114.21666666666667,55.01750450134278L116.55,36.87500000000001L118.88333333333333,47.49499549865723L121.21666666666667,45.724999999999994L123.55,46.16750450134277L125.88333333333334,69.76750450134277L128.21666666666667,53.54250450134278L130.55,60.622509002685554L132.88333333333333,50.00250225067138L135.21666666666667,60.18000450134278L137.55,59.44250450134278L139.88333333333333,42.48000450134278L142.21666666666667,71.09499549865723L144.54999999999998,88.79499549865723L146.88333333333333,75.07749099731446L149.21666666666667,59.14750900268554L151.55,88.35249099731445L153.88333333333333,105.01999549865722L156.21666666666664,118.88500900268555L158.55,128.03000450134277L160.88333333333333,140.125L163.21666666666667,159.59499549865723L165.55,150.45L167.88333333333333,116.23000450134278L170.21666666666667,78.61750450134278L172.54999999999998,55.3125L174.88333333333335,60.32749099731445L177.21666666666667,57.967504501342766L179.54999999999998,33.925L181.88333333333333,51.91999549865724L184.21666666666667,50.59250450134277L186.55,69.61999549865723L188.88333333333333,68.73500900268554L191.21666666666664,45.43000450134277L193.55,54.28000450134278L195.88333333333333,59.58999099731445L198.21666666666667,53.24749774932861L200.55,44.9875L202.88333333333333,52.36249999999999L205.21666666666667,28.762499999999996L207.54999999999998,40.56249999999999L209.88333333333335,47.93750000000001L212.21666666666667,21.830004501342778L214.54999999999998,32.30250225067138L216.88333333333333,52.36249999999999L219.21666666666667,39.0875L221.55,48.23249549865723L223.88333333333333,44.25L226.21666666666664,32.00749549865723L228.55,35.694995498657235L230.88333333333333,52.36249999999999L233.21666666666667,62.24499549865722L235.55,74.33999099731446L237.88333333333333,118.00000000000001L240.21666666666667,112.24750900268555L242.54999999999998,107.08500900268555L244.88333333333335,76.84750900268556L247.21666666666667,106.64250450134277L249.54999999999998,115.63999099731446L251.88333333333333,116.81999549865722L254.21666666666667,95.43249549865722L256.55,88.79499549865723" style="fill: none;" fill="none"></path></g><g><path stroke="rgb(255, 112, 67)" stroke-width="2px" d="M25.55,162.25L27.883333333333333,162.25L30.216666666666665,162.25L32.550000000000004,162.25L34.88333333333333,162.25L37.21666666666666,162.25L39.55,162.25L41.88333333333334,162.25L44.21666666666667,162.25L46.550000000000004,162.25L48.88333333333333,162.25L51.21666666666667,162.25L53.550000000000004,162.10249099731445L55.88333333333333,162.25L58.21666666666667,162.25L60.55,162.25L62.88333333333333,162.25L65.21666666666667,162.25L67.55,162.25L69.88333333333333,162.25L72.21666666666667,162.25L74.55,162.25L76.88333333333334,159.15249099731446L79.21666666666667,155.76000900268554L81.55,162.25L83.88333333333333,159.74250450134278L86.21666666666667,156.49750900268555L88.55,156.20249099731444L90.88333333333334,147.20500450134278L93.21666666666667,150.74499549865723L95.55,141.30500450134278L97.88333333333334,118.58999099731446L100.21666666666667,107.82250900268555L102.55000000000001,102.95500450134278L104.88333333333333,83.78000450134277L107.21666666666667,60.18000450134278L109.55,63.42499999999999L111.88333333333334,74.04499549865723L114.21666666666667,72.42250900268554L116.55,86.43500900268555L118.88333333333333,91.89250450134278L121.21666666666667,65.04750900268554L123.55,65.93249549865723L125.88333333333334,96.02250900268555L128.21666666666667,79.20749549865722L130.55,83.48500900268554L132.88333333333333,66.66999549865723L135.21666666666667,68.88249549865724L137.55,55.755004501342775L139.88333333333333,71.98000450134278L142.21666666666667,37.31750450134278L144.54999999999998,69.325L146.88333333333333,49.11750450134278L149.21666666666667,51.47750225067139L151.55,89.08999099731444L153.88333333333333,62.39250450134277L156.21666666666664,73.60249099731446L158.55,60.18000450134278L160.88333333333333,68.88249549865724L163.21666666666667,49.4125L165.55,46.60999774932861L167.88333333333333,52.06750450134277L170.21666666666667,95.28500900268554L172.54999999999998,54.28000450134278L174.88333333333335,40.11999549865722L177.21666666666667,62.39250450134277L179.54999999999998,32.45L181.88333333333333,37.46500225067138L184.21666666666667,113.13249549865724L186.55,81.41999549865723L188.88333333333333,70.35749549865723L191.21666666666664,51.18249549865722L193.55,77.28999099731445L195.88333333333333,68.14499549865722L198.21666666666667,59.44250450134278L200.55,40.26750450134277L202.88333333333333,53.24749774932861L205.21666666666667,53.690002250671384L207.54999999999998,58.41000900268554L209.88333333333335,93.95749549865722L212.21666666666667,76.99499549865723L214.54999999999998,71.09499549865723L216.88333333333333,74.63500900268555L219.21666666666667,80.3875L221.55,61.36000900268555L223.88333333333333,59.737500000000004L226.21666666666664,58.26250000000001L228.55,67.55500450134278L230.88333333333333,37.90749549865723L233.21666666666667,35.10500450134277L235.55,43.6599977493286L237.88333333333333,68.88249549865724L240.21666666666667,56.19750900268555L242.54999999999998,35.39999999999999L244.88333333333335,63.719995498657234L247.21666666666667,25.369995498657232L249.54999999999998,34.21999549865722L251.88333333333333,112.1L254.21666666666667,70.35749549865723L256.55,77.73249549865723" style="fill: none;" fill="none"></path></g><g><path stroke="rgb(204, 51, 17)" stroke-width="2px" d="M25.55,162.25L27.883333333333333,162.25L30.216666666666665,162.25L32.550000000000004,162.25L34.88333333333333,162.25L37.21666666666666,162.25L39.55,162.25L41.88333333333334,162.25L44.21666666666667,162.25L46.550000000000004,162.25L48.88333333333333,162.25L51.21666666666667,162.25L53.550000000000004,161.21750450134277L55.88333333333333,125.08000450134278L58.21666666666667,132.45500450134278L60.55,130.83249549865724L62.88333333333333,115.93500900268553L65.21666666666667,129.8L67.55,116.08249549865722L69.88333333333333,91.00749549865724L72.21666666666667,93.36750450134278L74.55,85.40249099731446L76.88333333333334,80.09250450134277L79.21666666666667,84.51750450134277L81.55,61.064990997314446L83.88333333333333,82.89499549865722L86.21666666666667,75.51999549865722L88.55,80.09250450134277L90.88333333333334,69.76750450134277L93.21666666666667,43.807495498657225L95.55,68.14499549865722L97.88333333333334,42.48000450134278L100.21666666666667,32.15500450134278L102.55000000000001,41.742504501342765L104.88333333333333,17.699999999999996L107.21666666666667,29.942504501342768L109.55,21.09250450134278L111.88333333333334,24.04250450134277L114.21666666666667,29.20500450134277L116.55,20.650000000000006L118.88333333333333,24.04250450134277L121.21666666666667,17.552502250671395L123.55,23.305004501342772L125.88333333333334,22.419995498657222L128.21666666666667,24.33749999999999L130.55,33.630004501342775L132.88333333333333,30.680004501342765L135.21666666666667,36.58000450134276L137.55,30.680004501342765L139.88333333333333,37.31750450134278L142.21666666666667,35.10500450134277L144.54999999999998,32.00749549865723L146.88333333333333,24.780004501342766L149.21666666666667,37.16999549865723L151.55,37.02249774932861L153.88333333333333,23.599999999999994L156.21666666666664,19.322497749328612L158.55,26.99250450134278L160.88333333333333,22.715002250671397L163.21666666666667,18.880004501342768L165.55,22.862499999999997L167.88333333333333,19.765002250671387L170.21666666666667,18.14250450134277L172.54999999999998,22.419995498657222L174.88333333333335,18.584997749328615L177.21666666666667,22.567504501342775L179.54999999999998,14.750000000000007L181.88333333333333,27.14000225067138L184.21666666666667,30.532495498657234L186.55,31.417504501342783L188.88333333333333,23.894995498657217L191.21666666666664,26.99250450134278L193.55,20.355004501342783L195.88333333333333,26.255004501342782L198.21666666666667,15.487500000000004L200.55,15.782495498657227L202.88333333333333,16.519995498657224L205.21666666666667,20.650000000000006L207.54999999999998,20.797497749328606L209.88333333333335,30.532495498657234L212.21666666666667,26.99250450134278L214.54999999999998,22.272497749328622L216.88333333333333,17.994995498657218L219.21666666666667,17.25749549865722L221.55,41.44749774932861L223.88333333333333,34.662499999999994L226.21666666666664,32.45L228.55,38.35L230.88333333333333,22.125L233.21666666666667,19.322497749328612L235.55,28.025L237.88333333333333,29.499999999999993L240.21666666666667,27.2875L242.54999999999998,32.744995498657225L244.88333333333335,13.127502250671391L247.21666666666667,20.797497749328606L249.54999999999998,19.617504501342765L251.88333333333333,16.225L254.21666666666667,21.830004501342778L256.55,20.20749549865723" style="fill: none;" fill="none"></path></g><g><path stroke="rgb(0, 119, 187)" stroke-width="2px" d="M25.55,162.25L27.883333333333333,162.25L30.216666666666665,162.25L32.550000000000004,162.25L34.88333333333333,162.25L37.21666666666666,162.25L39.55,162.25L41.88333333333334,162.25L44.21666666666667,162.25L46.550000000000004,162.25L48.88333333333333,160.48000450134276L51.21666666666667,154.43249549865723L53.550000000000004,145.13999099731444L55.88333333333333,150.30249099731446L58.21666666666667,140.56750450134277L60.55,125.22749099731445L62.88333333333333,134.51999549865724L65.21666666666667,108.11750450134276L67.55,97.93999099731445L69.88333333333333,96.31750450134277L72.21666666666667,94.4L74.55,74.78249549865723L76.88333333333334,80.83000450134277L79.21666666666667,70.50500450134278L81.55,90.71249999999999L83.88333333333333,79.06000900268555L86.21666666666667,64.75249099731445L88.55,67.70249099731446L90.88333333333334,64.75249099731445L93.21666666666667,58.70500450134276L95.55,75.07749099731446L97.88333333333334,53.39499549865723L100.21666666666667,63.27749099731446L102.55000000000001,41.594995498657234L104.88333333333333,49.855004501342776L107.21666666666667,61.064990997314446L109.55,94.54750900268554L111.88333333333334,81.27250900268554L114.21666666666667,76.40500450134277L116.55,65.6375L118.88333333333333,87.17250900268554L121.21666666666667,72.12749099731445L123.55,74.33999099731446L125.88333333333334,72.56999549865722L128.21666666666667,61.949999999999996L130.55,74.93000450134276L132.88333333333333,77.73249549865723L135.21666666666667,66.52250900268555L137.55,85.10749549865723L139.88333333333333,103.10249099731445L142.21666666666667,84.22250900268554L144.54999999999998,108.11750450134276L146.88333333333333,119.76999549865722L149.21666666666667,93.07250900268554L151.55,80.23999099731445L153.88333333333333,90.26999549865724L156.21666666666664,96.31750450134277L158.55,81.56750450134278L160.88333333333333,95.28500900268554L163.21666666666667,85.40249099731446L165.55,97.79250450134276L167.88333333333333,90.12250900268555L170.21666666666667,76.84750900268556L172.54999999999998,60.622509002685554L174.88333333333335,51.62499999999999L177.21666666666667,62.24499549865722L179.54999999999998,68.88249549865724L181.88333333333333,43.21750450134278L184.21666666666667,48.38000450134278L186.55,41.594995498657234L188.88333333333333,40.56249999999999L191.21666666666664,38.35L193.55,53.984997749328606L195.88333333333333,65.34250450134277L198.21666666666667,83.18999099731445L200.55,127.88249549865722L202.88333333333333,108.26499099731446L205.21666666666667,65.34250450134277L207.54999999999998,85.25500450134277L209.88333333333335,94.69499549865722L212.21666666666667,102.36499099731445L214.54999999999998,83.18999099731445L216.88333333333333,65.93249549865723L219.21666666666667,33.48249549865722L221.55,28.762499999999996L223.88333333333333,53.54250450134278L226.21666666666664,87.31999549865722L228.55,111.80500450134278L230.88333333333333,136.88000450134277L233.21666666666667,57.52499999999999L235.55,19.617504501342765L237.88333333333333,22.419995498657222L240.21666666666667,14.897497749328608L242.54999999999998,15.487500000000004L244.88333333333335,16.225L247.21666666666667,19.02750225067139L249.54999999999998,16.225L251.88333333333333,20.355004501342783L254.21666666666667,15.93000450134278L256.55,16.225" style="fill: none;" fill="none"></path></g></g></g></g></g></g><g transform="translate(50, 177)" clip-path="url(#clip_1)"><clipPath id="clip_1"><rect width="280" height="23"></rect></clipPath><g><g><line x1="0" y1="0" x2="0" y2="5" style="visibility: inherit;" fill="rgb(0, 0, 0)" stroke="rgb(204, 204, 204)" stroke-width="1px"></line><line x1="23.333333333333332" y1="0" x2="23.333333333333332" y2="5" style="visibility: inherit;" fill="rgb(0, 0, 0)" stroke="rgb(204, 204, 204)" stroke-width="1px"></line><line x1="46.666666666666664" y1="0" x2="46.666666666666664" y2="5" style="visibility: inherit;" fill="rgb(0, 0, 0)" stroke="rgb(204, 204, 204)" stroke-width="1px"></line><line x1="70" y1="0" x2="70" y2="5" style="visibility: inherit;" fill="rgb(0, 0, 0)" stroke="rgb(204, 204, 204)" stroke-width="1px"></line><line x1="93.33333333333333" y1="0" x2="93.33333333333333" y2="5" style="visibility: inherit;" fill="rgb(0, 0, 0)" stroke="rgb(204, 204, 204)" stroke-width="1px"></line><line x1="116.66666666666667" y1="0" x2="116.66666666666667" y2="5" style="visibility: inherit;" fill="rgb(0, 0, 0)" stroke="rgb(204, 204, 204)" stroke-width="1px"></line><line x1="140" y1="0" x2="140" y2="5" style="visibility: inherit;" fill="rgb(0, 0, 0)" stroke="rgb(204, 204, 204)" stroke-width="1px"></line><line x1="163.33333333333334" y1="0" x2="163.33333333333334" y2="5" style="visibility: inherit;" fill="rgb(0, 0, 0)" stroke="rgb(204, 204, 204)" stroke-width="1px"></line><line x1="186.66666666666666" y1="0" x2="186.66666666666666" y2="5" style="visibility: inherit;" fill="rgb(0, 0, 0)" stroke="rgb(204, 204, 204)" stroke-width="1px"></line><line x1="210" y1="0" x2="210" y2="5" style="visibility: inherit;" fill="rgb(0, 0, 0)" stroke="rgb(204, 204, 204)" stroke-width="1px"></line><line x1="233.33333333333334" y1="0" x2="233.33333333333334" y2="5" style="visibility: inherit;" fill="rgb(0, 0, 0)" stroke="rgb(204, 204, 204)" stroke-width="1px"></line><line x1="256.66666666666663" y1="0" x2="256.66666666666663" y2="5" style="visibility: inherit;" fill="rgb(0, 0, 0)" stroke="rgb(204, 204, 204)" stroke-width="1px"></line><line x1="280" y1="0" x2="280" y2="5" style="visibility: inherit;" fill="rgb(0, 0, 0)" stroke="rgb(204, 204, 204)" stroke-width="1px"></line></g><g transform="translate(0, 8)"><text x="0" y="0" dx="0em" dy="0.95em" style="text-anchor: middle; visibility: hidden; font-family: Roboto, sans-serif; font-size: 12px; font-weight: 200;" fill="rgb(33, 33, 33)" stroke="none" stroke-width="1px">-200</text><text x="23.333333333333332" y="0" dx="0em" dy="0.95em" style="text-anchor: middle; visibility: inherit; font-family: Roboto, sans-serif; font-size: 12px; font-weight: 200;" fill="rgb(33, 33, 33)" stroke="none" stroke-width="1px">0</text><text x="46.666666666666664" y="0" dx="0em" dy="0.95em" style="text-anchor: middle; visibility: hidden; font-family: Roboto, sans-serif; font-size: 12px; font-weight: 200;" fill="rgb(33, 33, 33)" stroke="none" stroke-width="1px">200</text><text x="70" y="0" dx="0em" dy="0.95em" style="text-anchor: middle; visibility: inherit; font-family: Roboto, sans-serif; font-size: 12px; font-weight: 200;" fill="rgb(33, 33, 33)" stroke="none" stroke-width="1px">400</text><text x="93.33333333333333" y="0" dx="0em" dy="0.95em" style="text-anchor: middle; visibility: hidden; font-family: Roboto, sans-serif; font-size: 12px; font-weight: 200;" fill="rgb(33, 33, 33)" stroke="none" stroke-width="1px">600</text><text x="116.66666666666667" y="0" dx="0em" dy="0.95em" style="text-anchor: middle; visibility: inherit; font-family: Roboto, sans-serif; font-size: 12px; font-weight: 200;" fill="rgb(33, 33, 33)" stroke="none" stroke-width="1px">800</text><text x="140" y="0" dx="0em" dy="0.95em" style="text-anchor: middle; visibility: hidden; font-family: Roboto, sans-serif; font-size: 12px; font-weight: 200;" fill="rgb(33, 33, 33)" stroke="none" stroke-width="1px">1k</text><text x="163.33333333333334" y="0" dx="0em" dy="0.95em" style="text-anchor: middle; visibility: inherit; font-family: Roboto, sans-serif; font-size: 12px; font-weight: 200;" fill="rgb(33, 33, 33)" stroke="none" stroke-width="1px">1.2k</text><text x="186.66666666666666" y="0" dx="0em" dy="0.95em" style="text-anchor: middle; visibility: hidden; font-family: Roboto, sans-serif; font-size: 12px; font-weight: 200;" fill="rgb(33, 33, 33)" stroke="none" stroke-width="1px">1.4k</text><text x="210" y="0" dx="0em" dy="0.95em" style="text-anchor: middle; visibility: inherit; font-family: Roboto, sans-serif; font-size: 12px; font-weight: 200;" fill="rgb(33, 33, 33)" stroke="none" stroke-width="1px">1.6k</text><text x="233.33333333333334" y="0" dx="0em" dy="0.95em" style="text-anchor: middle; visibility: hidden; font-family: Roboto, sans-serif; font-size: 12px; font-weight: 200;" fill="rgb(33, 33, 33)" stroke="none" stroke-width="1px">1.8k</text><text x="256.66666666666663" y="0" dx="0em" dy="0.95em" style="text-anchor: middle; visibility: inherit; font-family: Roboto, sans-serif; font-size: 12px; font-weight: 200;" fill="rgb(33, 33, 33)" stroke="none" stroke-width="1px">2k</text><text x="280" y="0" dx="0em" dy="0.95em" style="text-anchor: middle; visibility: hidden; font-family: Roboto, sans-serif; font-size: 12px; font-weight: 200;" fill="rgb(33, 33, 33)" stroke="none" stroke-width="1px">2.2k</text></g><line x1="0" y1="0" x2="280" y2="0" fill="rgb(0, 0, 0)" stroke="rgb(204, 204, 204)" stroke-width="1px"></line></g></g></g></g></svg>